%TF.GenerationSoftware,KiCad,Pcbnew,7.0.2*%
%TF.CreationDate,2023-11-25T23:14:47+00:00*%
%TF.ProjectId,simpleclick,73696d70-6c65-4636-9c69-636b2e6b6963,rev?*%
%TF.SameCoordinates,Original*%
%TF.FileFunction,Legend,Bot*%
%TF.FilePolarity,Positive*%
%FSLAX46Y46*%
G04 Gerber Fmt 4.6, Leading zero omitted, Abs format (unit mm)*
G04 Created by KiCad (PCBNEW 7.0.2) date 2023-11-25 23:14:47*
%MOMM*%
%LPD*%
G01*
G04 APERTURE LIST*
%ADD10C,0.150000*%
%ADD11C,0.100000*%
%ADD12C,0.120000*%
G04 APERTURE END LIST*
D10*
X130410952Y-75016666D02*
X131220476Y-75016666D01*
X131220476Y-75016666D02*
X131315714Y-74969047D01*
X131315714Y-74969047D02*
X131363333Y-74921428D01*
X131363333Y-74921428D02*
X131410952Y-74826190D01*
X131410952Y-74826190D02*
X131410952Y-74683333D01*
X131410952Y-74683333D02*
X131363333Y-74588095D01*
X131030000Y-75016666D02*
X131077619Y-74921428D01*
X131077619Y-74921428D02*
X131077619Y-74730952D01*
X131077619Y-74730952D02*
X131030000Y-74635714D01*
X131030000Y-74635714D02*
X130982380Y-74588095D01*
X130982380Y-74588095D02*
X130887142Y-74540476D01*
X130887142Y-74540476D02*
X130601428Y-74540476D01*
X130601428Y-74540476D02*
X130506190Y-74588095D01*
X130506190Y-74588095D02*
X130458571Y-74635714D01*
X130458571Y-74635714D02*
X130410952Y-74730952D01*
X130410952Y-74730952D02*
X130410952Y-74921428D01*
X130410952Y-74921428D02*
X130458571Y-75016666D01*
X131077619Y-75492857D02*
X130410952Y-75492857D01*
X130077619Y-75492857D02*
X130125238Y-75445238D01*
X130125238Y-75445238D02*
X130172857Y-75492857D01*
X130172857Y-75492857D02*
X130125238Y-75540476D01*
X130125238Y-75540476D02*
X130077619Y-75492857D01*
X130077619Y-75492857D02*
X130172857Y-75492857D01*
X130410952Y-75826190D02*
X130410952Y-76207142D01*
X130077619Y-75969047D02*
X130934761Y-75969047D01*
X130934761Y-75969047D02*
X131030000Y-76016666D01*
X131030000Y-76016666D02*
X131077619Y-76111904D01*
X131077619Y-76111904D02*
X131077619Y-76207142D01*
X131077619Y-76540476D02*
X130077619Y-76540476D01*
X131077619Y-76969047D02*
X130553809Y-76969047D01*
X130553809Y-76969047D02*
X130458571Y-76921428D01*
X130458571Y-76921428D02*
X130410952Y-76826190D01*
X130410952Y-76826190D02*
X130410952Y-76683333D01*
X130410952Y-76683333D02*
X130458571Y-76588095D01*
X130458571Y-76588095D02*
X130506190Y-76540476D01*
X130410952Y-77873809D02*
X131077619Y-77873809D01*
X130410952Y-77445238D02*
X130934761Y-77445238D01*
X130934761Y-77445238D02*
X131030000Y-77492857D01*
X131030000Y-77492857D02*
X131077619Y-77588095D01*
X131077619Y-77588095D02*
X131077619Y-77730952D01*
X131077619Y-77730952D02*
X131030000Y-77826190D01*
X131030000Y-77826190D02*
X130982380Y-77873809D01*
X131077619Y-78350000D02*
X130077619Y-78350000D01*
X130458571Y-78350000D02*
X130410952Y-78445238D01*
X130410952Y-78445238D02*
X130410952Y-78635714D01*
X130410952Y-78635714D02*
X130458571Y-78730952D01*
X130458571Y-78730952D02*
X130506190Y-78778571D01*
X130506190Y-78778571D02*
X130601428Y-78826190D01*
X130601428Y-78826190D02*
X130887142Y-78826190D01*
X130887142Y-78826190D02*
X130982380Y-78778571D01*
X130982380Y-78778571D02*
X131030000Y-78730952D01*
X131030000Y-78730952D02*
X131077619Y-78635714D01*
X131077619Y-78635714D02*
X131077619Y-78445238D01*
X131077619Y-78445238D02*
X131030000Y-78350000D01*
X130982380Y-79254762D02*
X131030000Y-79302381D01*
X131030000Y-79302381D02*
X131077619Y-79254762D01*
X131077619Y-79254762D02*
X131030000Y-79207143D01*
X131030000Y-79207143D02*
X130982380Y-79254762D01*
X130982380Y-79254762D02*
X131077619Y-79254762D01*
X131030000Y-80159523D02*
X131077619Y-80064285D01*
X131077619Y-80064285D02*
X131077619Y-79873809D01*
X131077619Y-79873809D02*
X131030000Y-79778571D01*
X131030000Y-79778571D02*
X130982380Y-79730952D01*
X130982380Y-79730952D02*
X130887142Y-79683333D01*
X130887142Y-79683333D02*
X130601428Y-79683333D01*
X130601428Y-79683333D02*
X130506190Y-79730952D01*
X130506190Y-79730952D02*
X130458571Y-79778571D01*
X130458571Y-79778571D02*
X130410952Y-79873809D01*
X130410952Y-79873809D02*
X130410952Y-80064285D01*
X130410952Y-80064285D02*
X130458571Y-80159523D01*
X131077619Y-80730952D02*
X131030000Y-80635714D01*
X131030000Y-80635714D02*
X130982380Y-80588095D01*
X130982380Y-80588095D02*
X130887142Y-80540476D01*
X130887142Y-80540476D02*
X130601428Y-80540476D01*
X130601428Y-80540476D02*
X130506190Y-80588095D01*
X130506190Y-80588095D02*
X130458571Y-80635714D01*
X130458571Y-80635714D02*
X130410952Y-80730952D01*
X130410952Y-80730952D02*
X130410952Y-80873809D01*
X130410952Y-80873809D02*
X130458571Y-80969047D01*
X130458571Y-80969047D02*
X130506190Y-81016666D01*
X130506190Y-81016666D02*
X130601428Y-81064285D01*
X130601428Y-81064285D02*
X130887142Y-81064285D01*
X130887142Y-81064285D02*
X130982380Y-81016666D01*
X130982380Y-81016666D02*
X131030000Y-80969047D01*
X131030000Y-80969047D02*
X131077619Y-80873809D01*
X131077619Y-80873809D02*
X131077619Y-80730952D01*
X131077619Y-81492857D02*
X130410952Y-81492857D01*
X130506190Y-81492857D02*
X130458571Y-81540476D01*
X130458571Y-81540476D02*
X130410952Y-81635714D01*
X130410952Y-81635714D02*
X130410952Y-81778571D01*
X130410952Y-81778571D02*
X130458571Y-81873809D01*
X130458571Y-81873809D02*
X130553809Y-81921428D01*
X130553809Y-81921428D02*
X131077619Y-81921428D01*
X130553809Y-81921428D02*
X130458571Y-81969047D01*
X130458571Y-81969047D02*
X130410952Y-82064285D01*
X130410952Y-82064285D02*
X130410952Y-82207142D01*
X130410952Y-82207142D02*
X130458571Y-82302381D01*
X130458571Y-82302381D02*
X130553809Y-82350000D01*
X130553809Y-82350000D02*
X131077619Y-82350000D01*
X130030000Y-83540475D02*
X131315714Y-82683333D01*
X131077619Y-83873809D02*
X130077619Y-83873809D01*
X130458571Y-83873809D02*
X130410952Y-83969047D01*
X130410952Y-83969047D02*
X130410952Y-84159523D01*
X130410952Y-84159523D02*
X130458571Y-84254761D01*
X130458571Y-84254761D02*
X130506190Y-84302380D01*
X130506190Y-84302380D02*
X130601428Y-84349999D01*
X130601428Y-84349999D02*
X130887142Y-84349999D01*
X130887142Y-84349999D02*
X130982380Y-84302380D01*
X130982380Y-84302380D02*
X131030000Y-84254761D01*
X131030000Y-84254761D02*
X131077619Y-84159523D01*
X131077619Y-84159523D02*
X131077619Y-83969047D01*
X131077619Y-83969047D02*
X131030000Y-83873809D01*
X131077619Y-85207142D02*
X130553809Y-85207142D01*
X130553809Y-85207142D02*
X130458571Y-85159523D01*
X130458571Y-85159523D02*
X130410952Y-85064285D01*
X130410952Y-85064285D02*
X130410952Y-84873809D01*
X130410952Y-84873809D02*
X130458571Y-84778571D01*
X131030000Y-85207142D02*
X131077619Y-85111904D01*
X131077619Y-85111904D02*
X131077619Y-84873809D01*
X131077619Y-84873809D02*
X131030000Y-84778571D01*
X131030000Y-84778571D02*
X130934761Y-84730952D01*
X130934761Y-84730952D02*
X130839523Y-84730952D01*
X130839523Y-84730952D02*
X130744285Y-84778571D01*
X130744285Y-84778571D02*
X130696666Y-84873809D01*
X130696666Y-84873809D02*
X130696666Y-85111904D01*
X130696666Y-85111904D02*
X130649047Y-85207142D01*
X131077619Y-85683333D02*
X130410952Y-85683333D01*
X130601428Y-85683333D02*
X130506190Y-85730952D01*
X130506190Y-85730952D02*
X130458571Y-85778571D01*
X130458571Y-85778571D02*
X130410952Y-85873809D01*
X130410952Y-85873809D02*
X130410952Y-85969047D01*
X131077619Y-86302381D02*
X130410952Y-86302381D01*
X130601428Y-86302381D02*
X130506190Y-86350000D01*
X130506190Y-86350000D02*
X130458571Y-86397619D01*
X130458571Y-86397619D02*
X130410952Y-86492857D01*
X130410952Y-86492857D02*
X130410952Y-86588095D01*
X131077619Y-87350000D02*
X130553809Y-87350000D01*
X130553809Y-87350000D02*
X130458571Y-87302381D01*
X130458571Y-87302381D02*
X130410952Y-87207143D01*
X130410952Y-87207143D02*
X130410952Y-87016667D01*
X130410952Y-87016667D02*
X130458571Y-86921429D01*
X131030000Y-87350000D02*
X131077619Y-87254762D01*
X131077619Y-87254762D02*
X131077619Y-87016667D01*
X131077619Y-87016667D02*
X131030000Y-86921429D01*
X131030000Y-86921429D02*
X130934761Y-86873810D01*
X130934761Y-86873810D02*
X130839523Y-86873810D01*
X130839523Y-86873810D02*
X130744285Y-86921429D01*
X130744285Y-86921429D02*
X130696666Y-87016667D01*
X130696666Y-87016667D02*
X130696666Y-87254762D01*
X130696666Y-87254762D02*
X130649047Y-87350000D01*
X130410952Y-87683334D02*
X130410952Y-88064286D01*
X130077619Y-87826191D02*
X130934761Y-87826191D01*
X130934761Y-87826191D02*
X131030000Y-87873810D01*
X131030000Y-87873810D02*
X131077619Y-87969048D01*
X131077619Y-87969048D02*
X131077619Y-88064286D01*
X130410952Y-88254763D02*
X130410952Y-88635715D01*
X130077619Y-88397620D02*
X130934761Y-88397620D01*
X130934761Y-88397620D02*
X131030000Y-88445239D01*
X131030000Y-88445239D02*
X131077619Y-88540477D01*
X131077619Y-88540477D02*
X131077619Y-88635715D01*
X132697619Y-74588095D02*
X131697619Y-74588095D01*
X131697619Y-75254761D02*
X131697619Y-75445237D01*
X131697619Y-75445237D02*
X131745238Y-75540475D01*
X131745238Y-75540475D02*
X131840476Y-75635713D01*
X131840476Y-75635713D02*
X132030952Y-75683332D01*
X132030952Y-75683332D02*
X132364285Y-75683332D01*
X132364285Y-75683332D02*
X132554761Y-75635713D01*
X132554761Y-75635713D02*
X132650000Y-75540475D01*
X132650000Y-75540475D02*
X132697619Y-75445237D01*
X132697619Y-75445237D02*
X132697619Y-75254761D01*
X132697619Y-75254761D02*
X132650000Y-75159523D01*
X132650000Y-75159523D02*
X132554761Y-75064285D01*
X132554761Y-75064285D02*
X132364285Y-75016666D01*
X132364285Y-75016666D02*
X132030952Y-75016666D01*
X132030952Y-75016666D02*
X131840476Y-75064285D01*
X131840476Y-75064285D02*
X131745238Y-75159523D01*
X131745238Y-75159523D02*
X131697619Y-75254761D01*
X131697619Y-75969047D02*
X131697619Y-76540475D01*
X132697619Y-76254761D02*
X131697619Y-76254761D01*
X132173809Y-77635714D02*
X132173809Y-77969047D01*
X132697619Y-78111904D02*
X132697619Y-77635714D01*
X132697619Y-77635714D02*
X131697619Y-77635714D01*
X131697619Y-77635714D02*
X131697619Y-78111904D01*
X132650000Y-78492857D02*
X132697619Y-78635714D01*
X132697619Y-78635714D02*
X132697619Y-78873809D01*
X132697619Y-78873809D02*
X132650000Y-78969047D01*
X132650000Y-78969047D02*
X132602380Y-79016666D01*
X132602380Y-79016666D02*
X132507142Y-79064285D01*
X132507142Y-79064285D02*
X132411904Y-79064285D01*
X132411904Y-79064285D02*
X132316666Y-79016666D01*
X132316666Y-79016666D02*
X132269047Y-78969047D01*
X132269047Y-78969047D02*
X132221428Y-78873809D01*
X132221428Y-78873809D02*
X132173809Y-78683333D01*
X132173809Y-78683333D02*
X132126190Y-78588095D01*
X132126190Y-78588095D02*
X132078571Y-78540476D01*
X132078571Y-78540476D02*
X131983333Y-78492857D01*
X131983333Y-78492857D02*
X131888095Y-78492857D01*
X131888095Y-78492857D02*
X131792857Y-78540476D01*
X131792857Y-78540476D02*
X131745238Y-78588095D01*
X131745238Y-78588095D02*
X131697619Y-78683333D01*
X131697619Y-78683333D02*
X131697619Y-78921428D01*
X131697619Y-78921428D02*
X131745238Y-79064285D01*
X132697619Y-79492857D02*
X131697619Y-79492857D01*
X131697619Y-79492857D02*
X131697619Y-79873809D01*
X131697619Y-79873809D02*
X131745238Y-79969047D01*
X131745238Y-79969047D02*
X131792857Y-80016666D01*
X131792857Y-80016666D02*
X131888095Y-80064285D01*
X131888095Y-80064285D02*
X132030952Y-80064285D01*
X132030952Y-80064285D02*
X132126190Y-80016666D01*
X132126190Y-80016666D02*
X132173809Y-79969047D01*
X132173809Y-79969047D02*
X132221428Y-79873809D01*
X132221428Y-79873809D02*
X132221428Y-79492857D01*
X132316666Y-80492857D02*
X132316666Y-81254762D01*
X131697619Y-81635714D02*
X131697619Y-82254761D01*
X131697619Y-82254761D02*
X132078571Y-81921428D01*
X132078571Y-81921428D02*
X132078571Y-82064285D01*
X132078571Y-82064285D02*
X132126190Y-82159523D01*
X132126190Y-82159523D02*
X132173809Y-82207142D01*
X132173809Y-82207142D02*
X132269047Y-82254761D01*
X132269047Y-82254761D02*
X132507142Y-82254761D01*
X132507142Y-82254761D02*
X132602380Y-82207142D01*
X132602380Y-82207142D02*
X132650000Y-82159523D01*
X132650000Y-82159523D02*
X132697619Y-82064285D01*
X132697619Y-82064285D02*
X132697619Y-81778571D01*
X132697619Y-81778571D02*
X132650000Y-81683333D01*
X132650000Y-81683333D02*
X132602380Y-81635714D01*
X131792857Y-82635714D02*
X131745238Y-82683333D01*
X131745238Y-82683333D02*
X131697619Y-82778571D01*
X131697619Y-82778571D02*
X131697619Y-83016666D01*
X131697619Y-83016666D02*
X131745238Y-83111904D01*
X131745238Y-83111904D02*
X131792857Y-83159523D01*
X131792857Y-83159523D02*
X131888095Y-83207142D01*
X131888095Y-83207142D02*
X131983333Y-83207142D01*
X131983333Y-83207142D02*
X132126190Y-83159523D01*
X132126190Y-83159523D02*
X132697619Y-82588095D01*
X132697619Y-82588095D02*
X132697619Y-83207142D01*
X133793809Y-74921428D02*
X133841428Y-75064285D01*
X133841428Y-75064285D02*
X133889047Y-75111904D01*
X133889047Y-75111904D02*
X133984285Y-75159523D01*
X133984285Y-75159523D02*
X134127142Y-75159523D01*
X134127142Y-75159523D02*
X134222380Y-75111904D01*
X134222380Y-75111904D02*
X134270000Y-75064285D01*
X134270000Y-75064285D02*
X134317619Y-74969047D01*
X134317619Y-74969047D02*
X134317619Y-74588095D01*
X134317619Y-74588095D02*
X133317619Y-74588095D01*
X133317619Y-74588095D02*
X133317619Y-74921428D01*
X133317619Y-74921428D02*
X133365238Y-75016666D01*
X133365238Y-75016666D02*
X133412857Y-75064285D01*
X133412857Y-75064285D02*
X133508095Y-75111904D01*
X133508095Y-75111904D02*
X133603333Y-75111904D01*
X133603333Y-75111904D02*
X133698571Y-75064285D01*
X133698571Y-75064285D02*
X133746190Y-75016666D01*
X133746190Y-75016666D02*
X133793809Y-74921428D01*
X133793809Y-74921428D02*
X133793809Y-74588095D01*
X133650952Y-76016666D02*
X134317619Y-76016666D01*
X133650952Y-75588095D02*
X134174761Y-75588095D01*
X134174761Y-75588095D02*
X134270000Y-75635714D01*
X134270000Y-75635714D02*
X134317619Y-75730952D01*
X134317619Y-75730952D02*
X134317619Y-75873809D01*
X134317619Y-75873809D02*
X134270000Y-75969047D01*
X134270000Y-75969047D02*
X134222380Y-76016666D01*
X133650952Y-76350000D02*
X133650952Y-76730952D01*
X133317619Y-76492857D02*
X134174761Y-76492857D01*
X134174761Y-76492857D02*
X134270000Y-76540476D01*
X134270000Y-76540476D02*
X134317619Y-76635714D01*
X134317619Y-76635714D02*
X134317619Y-76730952D01*
X133650952Y-76921429D02*
X133650952Y-77302381D01*
X133317619Y-77064286D02*
X134174761Y-77064286D01*
X134174761Y-77064286D02*
X134270000Y-77111905D01*
X134270000Y-77111905D02*
X134317619Y-77207143D01*
X134317619Y-77207143D02*
X134317619Y-77302381D01*
X134317619Y-77778572D02*
X134270000Y-77683334D01*
X134270000Y-77683334D02*
X134222380Y-77635715D01*
X134222380Y-77635715D02*
X134127142Y-77588096D01*
X134127142Y-77588096D02*
X133841428Y-77588096D01*
X133841428Y-77588096D02*
X133746190Y-77635715D01*
X133746190Y-77635715D02*
X133698571Y-77683334D01*
X133698571Y-77683334D02*
X133650952Y-77778572D01*
X133650952Y-77778572D02*
X133650952Y-77921429D01*
X133650952Y-77921429D02*
X133698571Y-78016667D01*
X133698571Y-78016667D02*
X133746190Y-78064286D01*
X133746190Y-78064286D02*
X133841428Y-78111905D01*
X133841428Y-78111905D02*
X134127142Y-78111905D01*
X134127142Y-78111905D02*
X134222380Y-78064286D01*
X134222380Y-78064286D02*
X134270000Y-78016667D01*
X134270000Y-78016667D02*
X134317619Y-77921429D01*
X134317619Y-77921429D02*
X134317619Y-77778572D01*
X133650952Y-78540477D02*
X134317619Y-78540477D01*
X133746190Y-78540477D02*
X133698571Y-78588096D01*
X133698571Y-78588096D02*
X133650952Y-78683334D01*
X133650952Y-78683334D02*
X133650952Y-78826191D01*
X133650952Y-78826191D02*
X133698571Y-78921429D01*
X133698571Y-78921429D02*
X133793809Y-78969048D01*
X133793809Y-78969048D02*
X134317619Y-78969048D01*
%TO.C,D1*%
X133333094Y-71702619D02*
X133333094Y-70702619D01*
X133333094Y-70702619D02*
X133094999Y-70702619D01*
X133094999Y-70702619D02*
X132952142Y-70750238D01*
X132952142Y-70750238D02*
X132856904Y-70845476D01*
X132856904Y-70845476D02*
X132809285Y-70940714D01*
X132809285Y-70940714D02*
X132761666Y-71131190D01*
X132761666Y-71131190D02*
X132761666Y-71274047D01*
X132761666Y-71274047D02*
X132809285Y-71464523D01*
X132809285Y-71464523D02*
X132856904Y-71559761D01*
X132856904Y-71559761D02*
X132952142Y-71655000D01*
X132952142Y-71655000D02*
X133094999Y-71702619D01*
X133094999Y-71702619D02*
X133333094Y-71702619D01*
X131809285Y-71702619D02*
X132380713Y-71702619D01*
X132094999Y-71702619D02*
X132094999Y-70702619D01*
X132094999Y-70702619D02*
X132190237Y-70845476D01*
X132190237Y-70845476D02*
X132285475Y-70940714D01*
X132285475Y-70940714D02*
X132380713Y-70988333D01*
D11*
%TO.C,SW1*%
X121063332Y-79735000D02*
X120920475Y-79782619D01*
X120920475Y-79782619D02*
X120682380Y-79782619D01*
X120682380Y-79782619D02*
X120587142Y-79735000D01*
X120587142Y-79735000D02*
X120539523Y-79687380D01*
X120539523Y-79687380D02*
X120491904Y-79592142D01*
X120491904Y-79592142D02*
X120491904Y-79496904D01*
X120491904Y-79496904D02*
X120539523Y-79401666D01*
X120539523Y-79401666D02*
X120587142Y-79354047D01*
X120587142Y-79354047D02*
X120682380Y-79306428D01*
X120682380Y-79306428D02*
X120872856Y-79258809D01*
X120872856Y-79258809D02*
X120968094Y-79211190D01*
X120968094Y-79211190D02*
X121015713Y-79163571D01*
X121015713Y-79163571D02*
X121063332Y-79068333D01*
X121063332Y-79068333D02*
X121063332Y-78973095D01*
X121063332Y-78973095D02*
X121015713Y-78877857D01*
X121015713Y-78877857D02*
X120968094Y-78830238D01*
X120968094Y-78830238D02*
X120872856Y-78782619D01*
X120872856Y-78782619D02*
X120634761Y-78782619D01*
X120634761Y-78782619D02*
X120491904Y-78830238D01*
X120158570Y-78782619D02*
X119920475Y-79782619D01*
X119920475Y-79782619D02*
X119729999Y-79068333D01*
X119729999Y-79068333D02*
X119539523Y-79782619D01*
X119539523Y-79782619D02*
X119301428Y-78782619D01*
X118396666Y-79782619D02*
X118968094Y-79782619D01*
X118682380Y-79782619D02*
X118682380Y-78782619D01*
X118682380Y-78782619D02*
X118777618Y-78925476D01*
X118777618Y-78925476D02*
X118872856Y-79020714D01*
X118872856Y-79020714D02*
X118968094Y-79068333D01*
D12*
%TO.C,D1*%
X135155000Y-76280000D02*
X135155000Y-76745000D01*
X135155000Y-73655000D02*
X135155000Y-74120000D01*
X129807186Y-76280827D02*
G75*
G03*
X135154999Y-76744830I2787814J1080827D01*
G01*
X130340522Y-76280428D02*
G75*
G03*
X134849683Y-76280000I2254478J1080428D01*
G01*
X134849684Y-74120000D02*
G75*
G03*
X130340521Y-74119571I-2254684J-1080000D01*
G01*
X135154999Y-73655170D02*
G75*
G03*
X129807186Y-74119173I-2559999J-1544830D01*
G01*
D11*
%TO.C,SW1*%
X125730000Y-74820000D02*
X113730000Y-74820000D01*
X113730000Y-74820000D02*
X113730000Y-86820000D01*
X113730000Y-86820000D02*
X125730000Y-86820000D01*
X125730000Y-86820000D02*
X125730000Y-74820000D01*
%TD*%
M02*
