%TF.GenerationSoftware,KiCad,Pcbnew,7.0.2*%
%TF.CreationDate,2023-11-25T23:14:47+00:00*%
%TF.ProjectId,simpleclick,73696d70-6c65-4636-9c69-636b2e6b6963,rev?*%
%TF.SameCoordinates,Original*%
%TF.FileFunction,Copper,L1,Top*%
%TF.FilePolarity,Positive*%
%FSLAX46Y46*%
G04 Gerber Fmt 4.6, Leading zero omitted, Abs format (unit mm)*
G04 Created by KiCad (PCBNEW 7.0.2) date 2023-11-25 23:14:47*
%MOMM*%
%LPD*%
G01*
G04 APERTURE LIST*
G04 Aperture macros list*
%AMRoundRect*
0 Rectangle with rounded corners*
0 $1 Rounding radius*
0 $2 $3 $4 $5 $6 $7 $8 $9 X,Y pos of 4 corners*
0 Add a 4 corners polygon primitive as box body*
4,1,4,$2,$3,$4,$5,$6,$7,$8,$9,$2,$3,0*
0 Add four circle primitives for the rounded corners*
1,1,$1+$1,$2,$3*
1,1,$1+$1,$4,$5*
1,1,$1+$1,$6,$7*
1,1,$1+$1,$8,$9*
0 Add four rect primitives between the rounded corners*
20,1,$1+$1,$2,$3,$4,$5,0*
20,1,$1+$1,$4,$5,$6,$7,0*
20,1,$1+$1,$6,$7,$8,$9,0*
20,1,$1+$1,$8,$9,$2,$3,0*%
G04 Aperture macros list end*
%TA.AperFunction,SMDPad,CuDef*%
%ADD10RoundRect,0.237500X0.250000X0.237500X-0.250000X0.237500X-0.250000X-0.237500X0.250000X-0.237500X0*%
%TD*%
%TA.AperFunction,SMDPad,CuDef*%
%ADD11RoundRect,0.250000X-0.337500X-0.475000X0.337500X-0.475000X0.337500X0.475000X-0.337500X0.475000X0*%
%TD*%
%TA.AperFunction,SMDPad,CuDef*%
%ADD12RoundRect,0.250000X-0.350000X-0.450000X0.350000X-0.450000X0.350000X0.450000X-0.350000X0.450000X0*%
%TD*%
%TA.AperFunction,SMDPad,CuDef*%
%ADD13RoundRect,0.250000X0.337500X0.475000X-0.337500X0.475000X-0.337500X-0.475000X0.337500X-0.475000X0*%
%TD*%
%TA.AperFunction,SMDPad,CuDef*%
%ADD14RoundRect,0.250000X0.350000X0.450000X-0.350000X0.450000X-0.350000X-0.450000X0.350000X-0.450000X0*%
%TD*%
%TA.AperFunction,SMDPad,CuDef*%
%ADD15C,2.000000*%
%TD*%
%TA.AperFunction,SMDPad,CuDef*%
%ADD16RoundRect,0.250000X-0.450000X0.350000X-0.450000X-0.350000X0.450000X-0.350000X0.450000X0.350000X0*%
%TD*%
%TA.AperFunction,SMDPad,CuDef*%
%ADD17R,1.500000X0.900000*%
%TD*%
%TA.AperFunction,SMDPad,CuDef*%
%ADD18R,0.700000X0.700000*%
%TD*%
%TA.AperFunction,SMDPad,CuDef*%
%ADD19R,0.600000X1.240000*%
%TD*%
%TA.AperFunction,SMDPad,CuDef*%
%ADD20R,0.300000X1.240000*%
%TD*%
%TA.AperFunction,ComponentPad*%
%ADD21O,1.000000X2.100000*%
%TD*%
%TA.AperFunction,ComponentPad*%
%ADD22O,1.000000X1.800000*%
%TD*%
%TA.AperFunction,SMDPad,CuDef*%
%ADD23R,0.800000X1.800000*%
%TD*%
%TA.AperFunction,SMDPad,CuDef*%
%ADD24R,0.500000X0.375000*%
%TD*%
%TA.AperFunction,SMDPad,CuDef*%
%ADD25R,0.650000X0.300000*%
%TD*%
%TA.AperFunction,SMDPad,CuDef*%
%ADD26RoundRect,0.250000X0.450000X-0.350000X0.450000X0.350000X-0.450000X0.350000X-0.450000X-0.350000X0*%
%TD*%
%TA.AperFunction,SMDPad,CuDef*%
%ADD27RoundRect,0.150000X-0.512500X-0.150000X0.512500X-0.150000X0.512500X0.150000X-0.512500X0.150000X0*%
%TD*%
%TA.AperFunction,ComponentPad*%
%ADD28R,1.070000X1.800000*%
%TD*%
%TA.AperFunction,ComponentPad*%
%ADD29O,1.070000X1.800000*%
%TD*%
%TA.AperFunction,ViaPad*%
%ADD30C,1.200000*%
%TD*%
%TA.AperFunction,ViaPad*%
%ADD31C,0.800000*%
%TD*%
%TA.AperFunction,Conductor*%
%ADD32C,0.500000*%
%TD*%
%TA.AperFunction,Conductor*%
%ADD33C,0.250000*%
%TD*%
%TA.AperFunction,Conductor*%
%ADD34C,0.200000*%
%TD*%
G04 APERTURE END LIST*
D10*
%TO.P,R7,1*%
%TO.N,Net-(D1-BK)*%
X133500000Y-77900000D03*
%TO.P,R7,2*%
%TO.N,Net-(U2-GPIO2{slash}ADC1_CH2)*%
X131675000Y-77900000D03*
%TD*%
%TO.P,R6,1*%
%TO.N,Net-(D1-GK)*%
X133112500Y-73400000D03*
%TO.P,R6,2*%
%TO.N,Net-(U2-GPIO0{slash}ADC1_CH0{slash}XTAL_32K_P)*%
X131287500Y-73400000D03*
%TD*%
%TO.P,R5,1*%
%TO.N,Net-(D1-RK)*%
X135712500Y-80000000D03*
%TO.P,R5,2*%
%TO.N,Net-(U2-GPIO1{slash}ADC1_CH1{slash}XTAL_32K_N)*%
X133887500Y-80000000D03*
%TD*%
D11*
%TO.P,C2,1*%
%TO.N,+3.3V*%
X104162500Y-78200000D03*
%TO.P,C2,2*%
%TO.N,GND*%
X106237500Y-78200000D03*
%TD*%
%TO.P,C4,1*%
%TO.N,+5V*%
X131662500Y-87800000D03*
%TO.P,C4,2*%
%TO.N,GND*%
X133737500Y-87800000D03*
%TD*%
D12*
%TO.P,R2,1*%
%TO.N,Net-(U4-PROG)*%
X110760000Y-93980000D03*
%TO.P,R2,2*%
%TO.N,GND*%
X112760000Y-93980000D03*
%TD*%
D13*
%TO.P,C1,1*%
%TO.N,+BATT*%
X106193500Y-85852000D03*
%TO.P,C1,2*%
%TO.N,GND*%
X104118500Y-85852000D03*
%TD*%
D14*
%TO.P,R3,1*%
%TO.N,Net-(J1-CC1)*%
X117600000Y-89900000D03*
%TO.P,R3,2*%
%TO.N,GND*%
X115600000Y-89900000D03*
%TD*%
D15*
%TO.P,-BAT1,1,Pin_1*%
%TO.N,GND*%
X131400000Y-90800000D03*
%TD*%
D16*
%TO.P,R12,1*%
%TO.N,GND*%
X108200000Y-77300000D03*
%TO.P,R12,2*%
%TO.N,Net-(U2-GPIO4{slash}ADC1_CH4)*%
X108200000Y-79300000D03*
%TD*%
D17*
%TO.P,U2,1,3V3*%
%TO.N,+3.3V*%
X111000000Y-73500000D03*
%TO.P,U2,2,EN/CHIP_PU*%
%TO.N,Net-(U2-EN{slash}CHIP_PU)*%
X111000000Y-75000000D03*
%TO.P,U2,3,GPIO4/ADC1_CH4*%
%TO.N,Net-(U2-GPIO4{slash}ADC1_CH4)*%
X111000000Y-76500000D03*
%TO.P,U2,4,GPIO5/ADC2_CH0*%
%TO.N,unconnected-(U2-GPIO5{slash}ADC2_CH0-Pad4)*%
X111000000Y-78000000D03*
%TO.P,U2,5,GPIO6*%
%TO.N,unconnected-(U2-GPIO6-Pad5)*%
X111000000Y-79500000D03*
%TO.P,U2,6,GPIO7*%
%TO.N,unconnected-(U2-GPIO7-Pad6)*%
X111000000Y-81000000D03*
%TO.P,U2,7,GPIO8*%
%TO.N,unconnected-(U2-GPIO8-Pad7)*%
X111000000Y-82500000D03*
%TO.P,U2,8,GPIO9*%
%TO.N,unconnected-(U2-GPIO9-Pad8)*%
X111000000Y-84000000D03*
%TO.P,U2,9,GND*%
%TO.N,GND*%
X111000000Y-85500000D03*
%TO.P,U2,10,GPIO10*%
%TO.N,unconnected-(U2-GPIO10-Pad10)*%
X128500000Y-85500000D03*
%TO.P,U2,11,GPIO20/U0RXD*%
%TO.N,unconnected-(U2-GPIO20{slash}U0RXD-Pad11)*%
X128500000Y-84000000D03*
%TO.P,U2,12,GPIO21/U0TXD*%
%TO.N,unconnected-(U2-GPIO21{slash}U0TXD-Pad12)*%
X128500000Y-82500000D03*
%TO.P,U2,13,GPIO18/USB_D-*%
%TO.N,/D-*%
X128500000Y-81000000D03*
%TO.P,U2,14,GPIO19/USB_D+*%
%TO.N,/D+*%
X128500000Y-79500000D03*
%TO.P,U2,15,GPIO3/ADC1_CH3*%
%TO.N,Net-(SW1-A)*%
X128500000Y-78000000D03*
%TO.P,U2,16,GPIO2/ADC1_CH2*%
%TO.N,Net-(U2-GPIO2{slash}ADC1_CH2)*%
X128500000Y-76500000D03*
%TO.P,U2,17,GPIO1/ADC1_CH1/XTAL_32K_N*%
%TO.N,Net-(U2-GPIO1{slash}ADC1_CH1{slash}XTAL_32K_N)*%
X128500000Y-75000000D03*
%TO.P,U2,18,GPIO0/ADC1_CH0/XTAL_32K_P*%
%TO.N,Net-(U2-GPIO0{slash}ADC1_CH0{slash}XTAL_32K_P)*%
X128500000Y-73500000D03*
D18*
%TO.P,U2,19,GND*%
%TO.N,GND*%
X119610000Y-78600000D03*
X119610000Y-79700000D03*
X119610000Y-80800000D03*
X120660000Y-78600000D03*
X120660000Y-79700000D03*
X120660000Y-80800000D03*
X121810000Y-78600000D03*
X121810000Y-79700000D03*
X121810000Y-80800000D03*
%TD*%
D19*
%TO.P,J1,A1,GND*%
%TO.N,GND*%
X116434000Y-92033000D03*
%TO.P,J1,A4,VBUS*%
%TO.N,+5V*%
X117234000Y-92033000D03*
D20*
%TO.P,J1,A5,CC1*%
%TO.N,Net-(J1-CC1)*%
X118384000Y-92033000D03*
%TO.P,J1,A6,D+*%
%TO.N,Net-(J1-D+-PadA6)*%
X119384000Y-92033000D03*
%TO.P,J1,A7,D-*%
%TO.N,Net-(J1-D--PadA7)*%
X119884000Y-92033000D03*
%TO.P,J1,A8,SBU1*%
%TO.N,unconnected-(J1-SBU1-PadA8)*%
X120884000Y-92033000D03*
D19*
%TO.P,J1,A9,VBUS*%
%TO.N,+5V*%
X122034000Y-92033000D03*
%TO.P,J1,A12,GND*%
%TO.N,GND*%
X122834000Y-92033000D03*
%TO.P,J1,B1,GND*%
X122834000Y-92033000D03*
%TO.P,J1,B4,VBUS*%
%TO.N,+5V*%
X122034000Y-92033000D03*
D20*
%TO.P,J1,B5,CC2*%
%TO.N,Net-(J1-CC2)*%
X121384000Y-92033000D03*
%TO.P,J1,B6,D+*%
%TO.N,Net-(J1-D+-PadA6)*%
X120384000Y-92033000D03*
%TO.P,J1,B7,D-*%
%TO.N,Net-(J1-D--PadA7)*%
X118884000Y-92033000D03*
%TO.P,J1,B8,SBU2*%
%TO.N,unconnected-(J1-SBU2-PadB8)*%
X117884000Y-92033000D03*
D19*
%TO.P,J1,B9,VBUS*%
%TO.N,+5V*%
X117234000Y-92033000D03*
%TO.P,J1,B12,GND*%
%TO.N,GND*%
X116434000Y-92033000D03*
D21*
%TO.P,J1,S1,SHIELD*%
X115314000Y-92633000D03*
D22*
X115314000Y-96833000D03*
D21*
X123954000Y-92633000D03*
D22*
X123954000Y-96833000D03*
%TD*%
D23*
%TO.P,U3,1,Vss*%
%TO.N,GND*%
X106150000Y-80350000D03*
%TO.P,U3,2,Vout*%
%TO.N,+3.3V*%
X104250000Y-80350000D03*
%TO.P,U3,3,Vin*%
%TO.N,+BATT*%
X105200000Y-83650000D03*
%TD*%
D11*
%TO.P,C3,1*%
%TO.N,+3.3V*%
X104162500Y-76200000D03*
%TO.P,C3,2*%
%TO.N,GND*%
X106237500Y-76200000D03*
%TD*%
D24*
%TO.P,U1,1,I/O1*%
%TO.N,Net-(J1-D--PadA7)*%
X131950000Y-82562500D03*
D25*
%TO.P,U1,2,GND*%
%TO.N,GND*%
X131875000Y-83100000D03*
D24*
%TO.P,U1,3,I/O2*%
%TO.N,Net-(J1-D+-PadA6)*%
X131950000Y-83637500D03*
%TO.P,U1,4,I/O2*%
%TO.N,/D+*%
X133650000Y-83637500D03*
D25*
%TO.P,U1,5,VBUS*%
%TO.N,+5V*%
X133725000Y-83100000D03*
D24*
%TO.P,U1,6,I/O1*%
%TO.N,/D-*%
X133650000Y-82562500D03*
%TD*%
D15*
%TO.P,+BAT1,1,Pin_1*%
%TO.N,+BATT*%
X107800000Y-90800000D03*
%TD*%
D11*
%TO.P,C5,1*%
%TO.N,+5V*%
X131962500Y-85700000D03*
%TO.P,C5,2*%
%TO.N,GND*%
X134037500Y-85700000D03*
%TD*%
D16*
%TO.P,R1,1*%
%TO.N,+3.3V*%
X106500000Y-72100000D03*
%TO.P,R1,2*%
%TO.N,Net-(U2-EN{slash}CHIP_PU)*%
X106500000Y-74100000D03*
%TD*%
D12*
%TO.P,R4,1*%
%TO.N,Net-(J1-CC2)*%
X122100000Y-89700000D03*
%TO.P,R4,2*%
%TO.N,GND*%
X124100000Y-89700000D03*
%TD*%
D26*
%TO.P,R11,1*%
%TO.N,+BATT*%
X108100000Y-84200000D03*
%TO.P,R11,2*%
%TO.N,Net-(U2-GPIO4{slash}ADC1_CH4)*%
X108100000Y-82200000D03*
%TD*%
D27*
%TO.P,U4,1,STAT*%
%TO.N,unconnected-(U4-STAT-Pad1)*%
X110562500Y-89093000D03*
%TO.P,U4,2,V_{SS}*%
%TO.N,GND*%
X110562500Y-90043000D03*
%TO.P,U4,3,V_{BAT}*%
%TO.N,+BATT*%
X110562500Y-90993000D03*
%TO.P,U4,4,V_{DD}*%
%TO.N,+5V*%
X112837500Y-90993000D03*
%TO.P,U4,5,PROG*%
%TO.N,Net-(U4-PROG)*%
X112837500Y-89093000D03*
%TD*%
D28*
%TO.P,D1,1,RK*%
%TO.N,Net-(D1-RK)*%
X134500000Y-75200000D03*
D29*
%TO.P,D1,2,GK*%
%TO.N,Net-(D1-GK)*%
X133230000Y-75200000D03*
%TO.P,D1,3,BK*%
%TO.N,Net-(D1-BK)*%
X131960000Y-75200000D03*
%TO.P,D1,4,A*%
%TO.N,+3.3V*%
X130690000Y-75200000D03*
%TD*%
D30*
%TO.N,GND*%
X115600000Y-88000000D03*
D31*
X122936000Y-79756000D03*
X106237500Y-78200000D03*
X121920000Y-82042000D03*
X118364000Y-78740000D03*
X112800000Y-95500000D03*
X119634000Y-82042000D03*
D30*
X129032000Y-90805000D03*
D31*
X108966000Y-85852000D03*
X118364000Y-79756000D03*
D30*
X129400000Y-92700000D03*
D31*
X118364000Y-80772000D03*
X130424500Y-83400000D03*
X122936000Y-80772000D03*
X122936000Y-78740000D03*
D30*
X125600000Y-89700000D03*
D31*
X120650000Y-82042000D03*
X104648000Y-87630000D03*
%TO.N,+3.3V*%
X111000000Y-73500000D03*
%TO.N,Net-(SW1-A)*%
X125730000Y-77820000D03*
%TD*%
D32*
%TO.N,GND*%
X123954000Y-89846000D02*
X123954000Y-92633000D01*
D33*
X124100000Y-89700000D02*
X123954000Y-89846000D01*
D32*
X115600000Y-92347000D02*
X115314000Y-92633000D01*
X115600000Y-89900000D02*
X115600000Y-92347000D01*
X115600000Y-89900000D02*
X115600000Y-88000000D01*
D33*
%TO.N,+5V*%
X130262500Y-89200000D02*
X131662500Y-87800000D01*
X124200000Y-94900000D02*
X127400000Y-91700000D01*
X127400000Y-91700000D02*
X127400000Y-89200000D01*
X122000000Y-94900000D02*
X124200000Y-94900000D01*
X127400000Y-89200000D02*
X130262500Y-89200000D01*
X121100000Y-94000000D02*
X122000000Y-94900000D01*
X118300000Y-94900000D02*
X117456000Y-94056000D01*
X117456000Y-94056000D02*
X117444000Y-94056000D01*
X121100000Y-93587051D02*
X121100000Y-94000000D01*
X120200000Y-94900000D02*
X118300000Y-94900000D01*
X122034000Y-92653051D02*
X121100000Y-93587051D01*
X121100000Y-94000000D02*
X120200000Y-94900000D01*
X122034000Y-92033000D02*
X122034000Y-92653051D01*
X116600000Y-94900000D02*
X115864274Y-94900000D01*
X117444000Y-92863051D02*
X117444000Y-94056000D01*
X117234000Y-92653051D02*
X117444000Y-92863051D01*
X117444000Y-94056000D02*
X116600000Y-94900000D01*
X112837500Y-91873226D02*
X112837500Y-90993000D01*
X115864274Y-94900000D02*
X112837500Y-91873226D01*
%TO.N,Net-(D1-GK)*%
X133112500Y-75082500D02*
X133230000Y-75200000D01*
X133112500Y-73400000D02*
X133112500Y-75082500D01*
%TO.N,Net-(U2-GPIO0{slash}ADC1_CH0{slash}XTAL_32K_P)*%
X131187500Y-73500000D02*
X131287500Y-73400000D01*
X128500000Y-73500000D02*
X131187500Y-73500000D01*
%TO.N,Net-(D1-BK)*%
X133500000Y-77160000D02*
X131960000Y-75620000D01*
X133500000Y-77900000D02*
X133500000Y-77160000D01*
X131960000Y-75620000D02*
X131960000Y-75200000D01*
%TO.N,Net-(U2-GPIO1{slash}ADC1_CH1{slash}XTAL_32K_N)*%
X130718776Y-76810000D02*
X128908776Y-75000000D01*
X131867995Y-76810000D02*
X130718776Y-76810000D01*
X133887500Y-80000000D02*
X132487500Y-78600000D01*
X132487500Y-78600000D02*
X132487500Y-77429505D01*
X132487500Y-77429505D02*
X131867995Y-76810000D01*
X128908776Y-75000000D02*
X128500000Y-75000000D01*
%TO.N,Net-(U2-GPIO2{slash}ADC1_CH2)*%
X130500000Y-77900000D02*
X131675000Y-77900000D01*
X129100000Y-76500000D02*
X130500000Y-77900000D01*
X128500000Y-76500000D02*
X129100000Y-76500000D01*
%TO.N,GND*%
X106150000Y-80350000D02*
X106150000Y-78287500D01*
X122908000Y-80800000D02*
X122936000Y-80772000D01*
X124100000Y-89900000D02*
X124100000Y-89700000D01*
X121810000Y-81932000D02*
X121920000Y-82042000D01*
X120660000Y-78600000D02*
X120660000Y-80800000D01*
X107300000Y-78200000D02*
X108200000Y-77300000D01*
D32*
X124100000Y-89700000D02*
X125600000Y-89700000D01*
D33*
X119610000Y-80800000D02*
X119610000Y-82018000D01*
D32*
X122834000Y-91166000D02*
X124100000Y-89900000D01*
D33*
X120660000Y-80800000D02*
X120660000Y-82032000D01*
X121810000Y-80800000D02*
X122908000Y-80800000D01*
X104118500Y-85852000D02*
X104118500Y-87100500D01*
X118504000Y-78600000D02*
X118364000Y-78740000D01*
X119610000Y-82018000D02*
X119634000Y-82042000D01*
X109855000Y-90043000D02*
X110562500Y-90043000D01*
X122796000Y-78600000D02*
X122936000Y-78740000D01*
X133737500Y-86000000D02*
X134037500Y-85700000D01*
X119610000Y-80800000D02*
X118392000Y-80800000D01*
D32*
X122834000Y-92033000D02*
X122834000Y-91166000D01*
D33*
X121810000Y-80800000D02*
X121810000Y-78600000D01*
X119610000Y-80800000D02*
X121810000Y-80800000D01*
X108966000Y-89154000D02*
X109855000Y-90043000D01*
X119610000Y-78600000D02*
X121810000Y-78600000D01*
X130724500Y-83100000D02*
X130424500Y-83400000D01*
X111000000Y-85500000D02*
X109318000Y-85500000D01*
X121810000Y-78600000D02*
X122796000Y-78600000D01*
X106237500Y-78200000D02*
X107300000Y-78200000D01*
X118420000Y-79700000D02*
X118364000Y-79756000D01*
D32*
X112760000Y-93980000D02*
X112760000Y-95460000D01*
D33*
X106150000Y-78287500D02*
X106237500Y-78200000D01*
X119610000Y-78600000D02*
X119610000Y-80800000D01*
D32*
X116434000Y-92033000D02*
X116434000Y-90734000D01*
D33*
X131875000Y-83100000D02*
X130724500Y-83100000D01*
D32*
X129032000Y-90805000D02*
X131445000Y-90805000D01*
D33*
X133737500Y-87800000D02*
X133737500Y-86000000D01*
D32*
X116434000Y-90734000D02*
X115600000Y-89900000D01*
D33*
X121810000Y-80800000D02*
X121810000Y-81932000D01*
X121810000Y-79700000D02*
X122880000Y-79700000D01*
X122880000Y-79700000D02*
X122936000Y-79756000D01*
X131400000Y-90800000D02*
X133737500Y-88462500D01*
D32*
X131445000Y-90805000D02*
X131295000Y-90805000D01*
D33*
X119610000Y-79700000D02*
X121810000Y-79700000D01*
D32*
X112760000Y-95460000D02*
X112800000Y-95500000D01*
D33*
X118392000Y-80800000D02*
X118364000Y-80772000D01*
D32*
X131295000Y-90805000D02*
X129400000Y-92700000D01*
D33*
X119610000Y-79700000D02*
X118420000Y-79700000D01*
X104118500Y-87100500D02*
X104140000Y-87122000D01*
X104140000Y-87122000D02*
X104648000Y-87630000D01*
X109318000Y-85500000D02*
X108966000Y-85852000D01*
X133737500Y-88462500D02*
X133737500Y-87800000D01*
X120660000Y-82032000D02*
X120650000Y-82042000D01*
X119610000Y-78600000D02*
X118504000Y-78600000D01*
X108966000Y-85852000D02*
X108966000Y-89154000D01*
X106237500Y-76200000D02*
X106237500Y-78200000D01*
%TO.N,+5V*%
X117234000Y-92033000D02*
X117234000Y-92653051D01*
D32*
%TO.N,+BATT*%
X106193500Y-85852000D02*
X106193500Y-84643500D01*
X108423000Y-90993000D02*
X109987500Y-90993000D01*
X107600000Y-86106000D02*
X107600000Y-90700000D01*
D33*
X108100000Y-84200000D02*
X108100000Y-85606000D01*
X108100000Y-85606000D02*
X107600000Y-86106000D01*
D32*
X107600000Y-86106000D02*
X107346000Y-85852000D01*
X106193500Y-85852000D02*
X107346000Y-85852000D01*
X106193500Y-84643500D02*
X105200000Y-83650000D01*
D33*
%TO.N,Net-(J1-D+-PadA6)*%
X120384000Y-88916000D02*
X120384000Y-92033000D01*
X130900000Y-84000000D02*
X131262500Y-83637500D01*
X130900000Y-85900000D02*
X129275000Y-87525000D01*
X120359000Y-92978000D02*
X119409000Y-92978000D01*
X130900000Y-85900000D02*
X130900000Y-84000000D01*
X119384000Y-92953000D02*
X119384000Y-92033000D01*
X120384000Y-92953000D02*
X120359000Y-92978000D01*
X131262500Y-83637500D02*
X131950000Y-83637500D01*
X120384000Y-92033000D02*
X120384000Y-92953000D01*
X129275000Y-87525000D02*
X121775000Y-87525000D01*
X119409000Y-92978000D02*
X119384000Y-92953000D01*
X121775000Y-87525000D02*
X120384000Y-88916000D01*
%TO.N,Net-(J1-D--PadA7)*%
X119888000Y-91088000D02*
X119909000Y-91109000D01*
X118884000Y-92033000D02*
X118884000Y-91113000D01*
X129200000Y-86700000D02*
X121800000Y-86700000D01*
X130236695Y-82562500D02*
X129699500Y-83099695D01*
X118884000Y-91113000D02*
X118909000Y-91088000D01*
X129699500Y-86199500D02*
X129700000Y-86200000D01*
X121800000Y-86700000D02*
X119884000Y-88616000D01*
X119909000Y-92008000D02*
X119884000Y-92033000D01*
X129699500Y-83099695D02*
X129699500Y-86199500D01*
X131950000Y-82562500D02*
X130236695Y-82562500D01*
X129700000Y-86200000D02*
X129200000Y-86700000D01*
X118909000Y-91088000D02*
X119888000Y-91088000D01*
X119884000Y-88616000D02*
X119884000Y-92033000D01*
X119909000Y-91109000D02*
X119909000Y-92008000D01*
D32*
%TO.N,+3.3V*%
X104250000Y-80350000D02*
X104250000Y-78618896D01*
D33*
X105000000Y-74200000D02*
X105000000Y-73600000D01*
X105000000Y-73600000D02*
X106500000Y-72100000D01*
X106500000Y-72100000D02*
X108700000Y-72100000D01*
X110100000Y-73500000D02*
X111000000Y-73500000D01*
X104250000Y-78618896D02*
X103996802Y-78365698D01*
X104162500Y-75037500D02*
X105000000Y-74200000D01*
X104162500Y-76200000D02*
X104162500Y-75037500D01*
X108700000Y-72100000D02*
X110100000Y-73500000D01*
%TO.N,+5V*%
X133100000Y-83100000D02*
X132525000Y-83675000D01*
X133725000Y-83100000D02*
X133100000Y-83100000D01*
X132525000Y-85137500D02*
X131962500Y-85700000D01*
X131662500Y-86000000D02*
X131962500Y-85700000D01*
X132525000Y-83675000D02*
X132525000Y-85137500D01*
X131662500Y-87800000D02*
X131662500Y-86000000D01*
%TO.N,Net-(J1-CC1)*%
X117600000Y-89900000D02*
X118384000Y-90684000D01*
X118384000Y-90684000D02*
X118384000Y-92033000D01*
%TO.N,Net-(J1-CC2)*%
X122100000Y-89700000D02*
X121384000Y-90416000D01*
X121384000Y-90416000D02*
X121384000Y-92033000D01*
%TO.N,Net-(U4-PROG)*%
X111812500Y-90118000D02*
X111812500Y-92927500D01*
X112837500Y-89093000D02*
X111812500Y-90118000D01*
X111812500Y-92927500D02*
X110760000Y-93980000D01*
%TO.N,Net-(D1-RK)*%
X135800000Y-80000000D02*
X134500000Y-78700000D01*
X134500000Y-78700000D02*
X134500000Y-75200000D01*
%TO.N,Net-(U2-GPIO4{slash}ADC1_CH4)*%
X109500000Y-78900000D02*
X109500000Y-76900000D01*
X108200000Y-79300000D02*
X109100000Y-79300000D01*
X109500000Y-76900000D02*
X109900000Y-76500000D01*
X109900000Y-76500000D02*
X111000000Y-76500000D01*
X108200000Y-79300000D02*
X108200000Y-82100000D01*
X108200000Y-82100000D02*
X108100000Y-82200000D01*
X109100000Y-79300000D02*
X109500000Y-78900000D01*
%TO.N,Net-(U2-EN{slash}CHIP_PU)*%
X109100000Y-75000000D02*
X111000000Y-75000000D01*
X106500000Y-74100000D02*
X108200000Y-74100000D01*
X108200000Y-74100000D02*
X109100000Y-75000000D01*
D34*
%TO.N,/D-*%
X133650000Y-82562500D02*
X132087500Y-81000000D01*
X132087500Y-81000000D02*
X128500000Y-81000000D01*
%TO.N,/D+*%
X134262500Y-83637500D02*
X134350000Y-83550000D01*
X133650000Y-83637500D02*
X134262500Y-83637500D01*
X134350000Y-82350000D02*
X131500000Y-79500000D01*
X134350000Y-83550000D02*
X134350000Y-82350000D01*
X131500000Y-79500000D02*
X128500000Y-79500000D01*
D33*
%TO.N,Net-(SW1-A)*%
X128500000Y-78000000D02*
X128375000Y-78000000D01*
X128195000Y-77820000D02*
X125730000Y-77820000D01*
X128375000Y-78000000D02*
X128195000Y-77820000D01*
%TD*%
M02*
