%TF.GenerationSoftware,KiCad,Pcbnew,7.0.2*%
%TF.CreationDate,2023-11-25T23:14:47+00:00*%
%TF.ProjectId,simpleclick,73696d70-6c65-4636-9c69-636b2e6b6963,rev?*%
%TF.SameCoordinates,Original*%
%TF.FileFunction,Paste,Top*%
%TF.FilePolarity,Positive*%
%FSLAX46Y46*%
G04 Gerber Fmt 4.6, Leading zero omitted, Abs format (unit mm)*
G04 Created by KiCad (PCBNEW 7.0.2) date 2023-11-25 23:14:47*
%MOMM*%
%LPD*%
G01*
G04 APERTURE LIST*
G04 Aperture macros list*
%AMRoundRect*
0 Rectangle with rounded corners*
0 $1 Rounding radius*
0 $2 $3 $4 $5 $6 $7 $8 $9 X,Y pos of 4 corners*
0 Add a 4 corners polygon primitive as box body*
4,1,4,$2,$3,$4,$5,$6,$7,$8,$9,$2,$3,0*
0 Add four circle primitives for the rounded corners*
1,1,$1+$1,$2,$3*
1,1,$1+$1,$4,$5*
1,1,$1+$1,$6,$7*
1,1,$1+$1,$8,$9*
0 Add four rect primitives between the rounded corners*
20,1,$1+$1,$2,$3,$4,$5,0*
20,1,$1+$1,$4,$5,$6,$7,0*
20,1,$1+$1,$6,$7,$8,$9,0*
20,1,$1+$1,$8,$9,$2,$3,0*%
G04 Aperture macros list end*
%ADD10RoundRect,0.237500X0.250000X0.237500X-0.250000X0.237500X-0.250000X-0.237500X0.250000X-0.237500X0*%
%ADD11RoundRect,0.250000X-0.337500X-0.475000X0.337500X-0.475000X0.337500X0.475000X-0.337500X0.475000X0*%
%ADD12RoundRect,0.250000X-0.350000X-0.450000X0.350000X-0.450000X0.350000X0.450000X-0.350000X0.450000X0*%
%ADD13RoundRect,0.250000X0.337500X0.475000X-0.337500X0.475000X-0.337500X-0.475000X0.337500X-0.475000X0*%
%ADD14RoundRect,0.250000X0.350000X0.450000X-0.350000X0.450000X-0.350000X-0.450000X0.350000X-0.450000X0*%
%ADD15RoundRect,0.250000X-0.450000X0.350000X-0.450000X-0.350000X0.450000X-0.350000X0.450000X0.350000X0*%
%ADD16R,1.500000X0.900000*%
%ADD17R,0.700000X0.700000*%
%ADD18R,0.600000X1.240000*%
%ADD19R,0.300000X1.240000*%
%ADD20R,0.800000X1.800000*%
%ADD21R,0.500000X0.375000*%
%ADD22R,0.650000X0.300000*%
%ADD23RoundRect,0.250000X0.450000X-0.350000X0.450000X0.350000X-0.450000X0.350000X-0.450000X-0.350000X0*%
%ADD24RoundRect,0.150000X-0.512500X-0.150000X0.512500X-0.150000X0.512500X0.150000X-0.512500X0.150000X0*%
G04 APERTURE END LIST*
D10*
%TO.C,R7*%
X133500000Y-77900000D03*
X131675000Y-77900000D03*
%TD*%
%TO.C,R6*%
X133112500Y-73400000D03*
X131287500Y-73400000D03*
%TD*%
%TO.C,R5*%
X135712500Y-80000000D03*
X133887500Y-80000000D03*
%TD*%
D11*
%TO.C,C2*%
X104162500Y-78200000D03*
X106237500Y-78200000D03*
%TD*%
%TO.C,C4*%
X131662500Y-87800000D03*
X133737500Y-87800000D03*
%TD*%
D12*
%TO.C,R2*%
X110760000Y-93980000D03*
X112760000Y-93980000D03*
%TD*%
D13*
%TO.C,C1*%
X106193500Y-85852000D03*
X104118500Y-85852000D03*
%TD*%
D14*
%TO.C,R3*%
X117600000Y-89900000D03*
X115600000Y-89900000D03*
%TD*%
D15*
%TO.C,R12*%
X108200000Y-77300000D03*
X108200000Y-79300000D03*
%TD*%
D16*
%TO.C,U2*%
X111000000Y-73500000D03*
X111000000Y-75000000D03*
X111000000Y-76500000D03*
X111000000Y-78000000D03*
X111000000Y-79500000D03*
X111000000Y-81000000D03*
X111000000Y-82500000D03*
X111000000Y-84000000D03*
X111000000Y-85500000D03*
X128500000Y-85500000D03*
X128500000Y-84000000D03*
X128500000Y-82500000D03*
X128500000Y-81000000D03*
X128500000Y-79500000D03*
X128500000Y-78000000D03*
X128500000Y-76500000D03*
X128500000Y-75000000D03*
X128500000Y-73500000D03*
D17*
X119610000Y-78600000D03*
X119610000Y-79700000D03*
X119610000Y-80800000D03*
X120660000Y-78600000D03*
X120660000Y-79700000D03*
X120660000Y-80800000D03*
X121810000Y-78600000D03*
X121810000Y-79700000D03*
X121810000Y-80800000D03*
%TD*%
D18*
%TO.C,J1*%
X116434000Y-92033000D03*
X117234000Y-92033000D03*
D19*
X118384000Y-92033000D03*
X119384000Y-92033000D03*
X119884000Y-92033000D03*
X120884000Y-92033000D03*
D18*
X122034000Y-92033000D03*
X122834000Y-92033000D03*
X122834000Y-92033000D03*
X122034000Y-92033000D03*
D19*
X121384000Y-92033000D03*
X120384000Y-92033000D03*
X118884000Y-92033000D03*
X117884000Y-92033000D03*
D18*
X117234000Y-92033000D03*
X116434000Y-92033000D03*
%TD*%
D20*
%TO.C,U3*%
X106150000Y-80350000D03*
X104250000Y-80350000D03*
X105200000Y-83650000D03*
%TD*%
D11*
%TO.C,C3*%
X104162500Y-76200000D03*
X106237500Y-76200000D03*
%TD*%
D21*
%TO.C,U1*%
X131950000Y-82562500D03*
D22*
X131875000Y-83100000D03*
D21*
X131950000Y-83637500D03*
X133650000Y-83637500D03*
D22*
X133725000Y-83100000D03*
D21*
X133650000Y-82562500D03*
%TD*%
D11*
%TO.C,C5*%
X131962500Y-85700000D03*
X134037500Y-85700000D03*
%TD*%
D15*
%TO.C,R1*%
X106500000Y-72100000D03*
X106500000Y-74100000D03*
%TD*%
D12*
%TO.C,R4*%
X122100000Y-89700000D03*
X124100000Y-89700000D03*
%TD*%
D23*
%TO.C,R11*%
X108100000Y-84200000D03*
X108100000Y-82200000D03*
%TD*%
D24*
%TO.C,U4*%
X110562500Y-89093000D03*
X110562500Y-90043000D03*
X110562500Y-90993000D03*
X112837500Y-90993000D03*
X112837500Y-89093000D03*
%TD*%
M02*
