%TF.GenerationSoftware,KiCad,Pcbnew,7.0.2*%
%TF.CreationDate,2023-11-25T23:14:47+00:00*%
%TF.ProjectId,simpleclick,73696d70-6c65-4636-9c69-636b2e6b6963,rev?*%
%TF.SameCoordinates,Original*%
%TF.FileFunction,Legend,Top*%
%TF.FilePolarity,Positive*%
%FSLAX46Y46*%
G04 Gerber Fmt 4.6, Leading zero omitted, Abs format (unit mm)*
G04 Created by KiCad (PCBNEW 7.0.2) date 2023-11-25 23:14:47*
%MOMM*%
%LPD*%
G01*
G04 APERTURE LIST*
%ADD10C,0.150000*%
%ADD11C,0.120000*%
G04 APERTURE END LIST*
D10*
%TO.C,R7*%
X132420833Y-79792619D02*
X132087500Y-79316428D01*
X131849405Y-79792619D02*
X131849405Y-78792619D01*
X131849405Y-78792619D02*
X132230357Y-78792619D01*
X132230357Y-78792619D02*
X132325595Y-78840238D01*
X132325595Y-78840238D02*
X132373214Y-78887857D01*
X132373214Y-78887857D02*
X132420833Y-78983095D01*
X132420833Y-78983095D02*
X132420833Y-79125952D01*
X132420833Y-79125952D02*
X132373214Y-79221190D01*
X132373214Y-79221190D02*
X132325595Y-79268809D01*
X132325595Y-79268809D02*
X132230357Y-79316428D01*
X132230357Y-79316428D02*
X131849405Y-79316428D01*
X132754167Y-78792619D02*
X133420833Y-78792619D01*
X133420833Y-78792619D02*
X132992262Y-79792619D01*
%TO.C,R6*%
X132033333Y-75292619D02*
X131700000Y-74816428D01*
X131461905Y-75292619D02*
X131461905Y-74292619D01*
X131461905Y-74292619D02*
X131842857Y-74292619D01*
X131842857Y-74292619D02*
X131938095Y-74340238D01*
X131938095Y-74340238D02*
X131985714Y-74387857D01*
X131985714Y-74387857D02*
X132033333Y-74483095D01*
X132033333Y-74483095D02*
X132033333Y-74625952D01*
X132033333Y-74625952D02*
X131985714Y-74721190D01*
X131985714Y-74721190D02*
X131938095Y-74768809D01*
X131938095Y-74768809D02*
X131842857Y-74816428D01*
X131842857Y-74816428D02*
X131461905Y-74816428D01*
X132890476Y-74292619D02*
X132700000Y-74292619D01*
X132700000Y-74292619D02*
X132604762Y-74340238D01*
X132604762Y-74340238D02*
X132557143Y-74387857D01*
X132557143Y-74387857D02*
X132461905Y-74530714D01*
X132461905Y-74530714D02*
X132414286Y-74721190D01*
X132414286Y-74721190D02*
X132414286Y-75102142D01*
X132414286Y-75102142D02*
X132461905Y-75197380D01*
X132461905Y-75197380D02*
X132509524Y-75245000D01*
X132509524Y-75245000D02*
X132604762Y-75292619D01*
X132604762Y-75292619D02*
X132795238Y-75292619D01*
X132795238Y-75292619D02*
X132890476Y-75245000D01*
X132890476Y-75245000D02*
X132938095Y-75197380D01*
X132938095Y-75197380D02*
X132985714Y-75102142D01*
X132985714Y-75102142D02*
X132985714Y-74864047D01*
X132985714Y-74864047D02*
X132938095Y-74768809D01*
X132938095Y-74768809D02*
X132890476Y-74721190D01*
X132890476Y-74721190D02*
X132795238Y-74673571D01*
X132795238Y-74673571D02*
X132604762Y-74673571D01*
X132604762Y-74673571D02*
X132509524Y-74721190D01*
X132509524Y-74721190D02*
X132461905Y-74768809D01*
X132461905Y-74768809D02*
X132414286Y-74864047D01*
%TO.C,R5*%
X134633333Y-81892619D02*
X134300000Y-81416428D01*
X134061905Y-81892619D02*
X134061905Y-80892619D01*
X134061905Y-80892619D02*
X134442857Y-80892619D01*
X134442857Y-80892619D02*
X134538095Y-80940238D01*
X134538095Y-80940238D02*
X134585714Y-80987857D01*
X134585714Y-80987857D02*
X134633333Y-81083095D01*
X134633333Y-81083095D02*
X134633333Y-81225952D01*
X134633333Y-81225952D02*
X134585714Y-81321190D01*
X134585714Y-81321190D02*
X134538095Y-81368809D01*
X134538095Y-81368809D02*
X134442857Y-81416428D01*
X134442857Y-81416428D02*
X134061905Y-81416428D01*
X135538095Y-80892619D02*
X135061905Y-80892619D01*
X135061905Y-80892619D02*
X135014286Y-81368809D01*
X135014286Y-81368809D02*
X135061905Y-81321190D01*
X135061905Y-81321190D02*
X135157143Y-81273571D01*
X135157143Y-81273571D02*
X135395238Y-81273571D01*
X135395238Y-81273571D02*
X135490476Y-81321190D01*
X135490476Y-81321190D02*
X135538095Y-81368809D01*
X135538095Y-81368809D02*
X135585714Y-81464047D01*
X135585714Y-81464047D02*
X135585714Y-81702142D01*
X135585714Y-81702142D02*
X135538095Y-81797380D01*
X135538095Y-81797380D02*
X135490476Y-81845000D01*
X135490476Y-81845000D02*
X135395238Y-81892619D01*
X135395238Y-81892619D02*
X135157143Y-81892619D01*
X135157143Y-81892619D02*
X135061905Y-81845000D01*
X135061905Y-81845000D02*
X135014286Y-81797380D01*
%TO.C,C2*%
X107183333Y-75502380D02*
X107135714Y-75550000D01*
X107135714Y-75550000D02*
X106992857Y-75597619D01*
X106992857Y-75597619D02*
X106897619Y-75597619D01*
X106897619Y-75597619D02*
X106754762Y-75550000D01*
X106754762Y-75550000D02*
X106659524Y-75454761D01*
X106659524Y-75454761D02*
X106611905Y-75359523D01*
X106611905Y-75359523D02*
X106564286Y-75169047D01*
X106564286Y-75169047D02*
X106564286Y-75026190D01*
X106564286Y-75026190D02*
X106611905Y-74835714D01*
X106611905Y-74835714D02*
X106659524Y-74740476D01*
X106659524Y-74740476D02*
X106754762Y-74645238D01*
X106754762Y-74645238D02*
X106897619Y-74597619D01*
X106897619Y-74597619D02*
X106992857Y-74597619D01*
X106992857Y-74597619D02*
X107135714Y-74645238D01*
X107135714Y-74645238D02*
X107183333Y-74692857D01*
X107564286Y-74692857D02*
X107611905Y-74645238D01*
X107611905Y-74645238D02*
X107707143Y-74597619D01*
X107707143Y-74597619D02*
X107945238Y-74597619D01*
X107945238Y-74597619D02*
X108040476Y-74645238D01*
X108040476Y-74645238D02*
X108088095Y-74692857D01*
X108088095Y-74692857D02*
X108135714Y-74788095D01*
X108135714Y-74788095D02*
X108135714Y-74883333D01*
X108135714Y-74883333D02*
X108088095Y-75026190D01*
X108088095Y-75026190D02*
X107516667Y-75597619D01*
X107516667Y-75597619D02*
X108135714Y-75597619D01*
%TO.C,C4*%
X135397333Y-84361380D02*
X135349714Y-84409000D01*
X135349714Y-84409000D02*
X135206857Y-84456619D01*
X135206857Y-84456619D02*
X135111619Y-84456619D01*
X135111619Y-84456619D02*
X134968762Y-84409000D01*
X134968762Y-84409000D02*
X134873524Y-84313761D01*
X134873524Y-84313761D02*
X134825905Y-84218523D01*
X134825905Y-84218523D02*
X134778286Y-84028047D01*
X134778286Y-84028047D02*
X134778286Y-83885190D01*
X134778286Y-83885190D02*
X134825905Y-83694714D01*
X134825905Y-83694714D02*
X134873524Y-83599476D01*
X134873524Y-83599476D02*
X134968762Y-83504238D01*
X134968762Y-83504238D02*
X135111619Y-83456619D01*
X135111619Y-83456619D02*
X135206857Y-83456619D01*
X135206857Y-83456619D02*
X135349714Y-83504238D01*
X135349714Y-83504238D02*
X135397333Y-83551857D01*
X136254476Y-83789952D02*
X136254476Y-84456619D01*
X136016381Y-83409000D02*
X135778286Y-84123285D01*
X135778286Y-84123285D02*
X136397333Y-84123285D01*
%TO.C,R2*%
X111003333Y-96042619D02*
X110670000Y-95566428D01*
X110431905Y-96042619D02*
X110431905Y-95042619D01*
X110431905Y-95042619D02*
X110812857Y-95042619D01*
X110812857Y-95042619D02*
X110908095Y-95090238D01*
X110908095Y-95090238D02*
X110955714Y-95137857D01*
X110955714Y-95137857D02*
X111003333Y-95233095D01*
X111003333Y-95233095D02*
X111003333Y-95375952D01*
X111003333Y-95375952D02*
X110955714Y-95471190D01*
X110955714Y-95471190D02*
X110908095Y-95518809D01*
X110908095Y-95518809D02*
X110812857Y-95566428D01*
X110812857Y-95566428D02*
X110431905Y-95566428D01*
X111384286Y-95137857D02*
X111431905Y-95090238D01*
X111431905Y-95090238D02*
X111527143Y-95042619D01*
X111527143Y-95042619D02*
X111765238Y-95042619D01*
X111765238Y-95042619D02*
X111860476Y-95090238D01*
X111860476Y-95090238D02*
X111908095Y-95137857D01*
X111908095Y-95137857D02*
X111955714Y-95233095D01*
X111955714Y-95233095D02*
X111955714Y-95328333D01*
X111955714Y-95328333D02*
X111908095Y-95471190D01*
X111908095Y-95471190D02*
X111336667Y-96042619D01*
X111336667Y-96042619D02*
X111955714Y-96042619D01*
%TO.C,C1*%
X105963333Y-88117380D02*
X105915714Y-88165000D01*
X105915714Y-88165000D02*
X105772857Y-88212619D01*
X105772857Y-88212619D02*
X105677619Y-88212619D01*
X105677619Y-88212619D02*
X105534762Y-88165000D01*
X105534762Y-88165000D02*
X105439524Y-88069761D01*
X105439524Y-88069761D02*
X105391905Y-87974523D01*
X105391905Y-87974523D02*
X105344286Y-87784047D01*
X105344286Y-87784047D02*
X105344286Y-87641190D01*
X105344286Y-87641190D02*
X105391905Y-87450714D01*
X105391905Y-87450714D02*
X105439524Y-87355476D01*
X105439524Y-87355476D02*
X105534762Y-87260238D01*
X105534762Y-87260238D02*
X105677619Y-87212619D01*
X105677619Y-87212619D02*
X105772857Y-87212619D01*
X105772857Y-87212619D02*
X105915714Y-87260238D01*
X105915714Y-87260238D02*
X105963333Y-87307857D01*
X106915714Y-88212619D02*
X106344286Y-88212619D01*
X106630000Y-88212619D02*
X106630000Y-87212619D01*
X106630000Y-87212619D02*
X106534762Y-87355476D01*
X106534762Y-87355476D02*
X106439524Y-87450714D01*
X106439524Y-87450714D02*
X106344286Y-87498333D01*
%TO.C,R3*%
X119293333Y-90302619D02*
X118960000Y-89826428D01*
X118721905Y-90302619D02*
X118721905Y-89302619D01*
X118721905Y-89302619D02*
X119102857Y-89302619D01*
X119102857Y-89302619D02*
X119198095Y-89350238D01*
X119198095Y-89350238D02*
X119245714Y-89397857D01*
X119245714Y-89397857D02*
X119293333Y-89493095D01*
X119293333Y-89493095D02*
X119293333Y-89635952D01*
X119293333Y-89635952D02*
X119245714Y-89731190D01*
X119245714Y-89731190D02*
X119198095Y-89778809D01*
X119198095Y-89778809D02*
X119102857Y-89826428D01*
X119102857Y-89826428D02*
X118721905Y-89826428D01*
X119626667Y-89302619D02*
X120245714Y-89302619D01*
X120245714Y-89302619D02*
X119912381Y-89683571D01*
X119912381Y-89683571D02*
X120055238Y-89683571D01*
X120055238Y-89683571D02*
X120150476Y-89731190D01*
X120150476Y-89731190D02*
X120198095Y-89778809D01*
X120198095Y-89778809D02*
X120245714Y-89874047D01*
X120245714Y-89874047D02*
X120245714Y-90112142D01*
X120245714Y-90112142D02*
X120198095Y-90207380D01*
X120198095Y-90207380D02*
X120150476Y-90255000D01*
X120150476Y-90255000D02*
X120055238Y-90302619D01*
X120055238Y-90302619D02*
X119769524Y-90302619D01*
X119769524Y-90302619D02*
X119674286Y-90255000D01*
X119674286Y-90255000D02*
X119626667Y-90207380D01*
%TO.C,-BAT1*%
X129233333Y-88883666D02*
X129995238Y-88883666D01*
X130804761Y-88740809D02*
X130947618Y-88788428D01*
X130947618Y-88788428D02*
X130995237Y-88836047D01*
X130995237Y-88836047D02*
X131042856Y-88931285D01*
X131042856Y-88931285D02*
X131042856Y-89074142D01*
X131042856Y-89074142D02*
X130995237Y-89169380D01*
X130995237Y-89169380D02*
X130947618Y-89217000D01*
X130947618Y-89217000D02*
X130852380Y-89264619D01*
X130852380Y-89264619D02*
X130471428Y-89264619D01*
X130471428Y-89264619D02*
X130471428Y-88264619D01*
X130471428Y-88264619D02*
X130804761Y-88264619D01*
X130804761Y-88264619D02*
X130899999Y-88312238D01*
X130899999Y-88312238D02*
X130947618Y-88359857D01*
X130947618Y-88359857D02*
X130995237Y-88455095D01*
X130995237Y-88455095D02*
X130995237Y-88550333D01*
X130995237Y-88550333D02*
X130947618Y-88645571D01*
X130947618Y-88645571D02*
X130899999Y-88693190D01*
X130899999Y-88693190D02*
X130804761Y-88740809D01*
X130804761Y-88740809D02*
X130471428Y-88740809D01*
X131423809Y-88978904D02*
X131899999Y-88978904D01*
X131328571Y-89264619D02*
X131661904Y-88264619D01*
X131661904Y-88264619D02*
X131995237Y-89264619D01*
X132185714Y-88264619D02*
X132757142Y-88264619D01*
X132471428Y-89264619D02*
X132471428Y-88264619D01*
X133614285Y-89264619D02*
X133042857Y-89264619D01*
X133328571Y-89264619D02*
X133328571Y-88264619D01*
X133328571Y-88264619D02*
X133233333Y-88407476D01*
X133233333Y-88407476D02*
X133138095Y-88502714D01*
X133138095Y-88502714D02*
X133042857Y-88550333D01*
%TO.C,R12*%
X110312619Y-78942857D02*
X109836428Y-79276190D01*
X110312619Y-79514285D02*
X109312619Y-79514285D01*
X109312619Y-79514285D02*
X109312619Y-79133333D01*
X109312619Y-79133333D02*
X109360238Y-79038095D01*
X109360238Y-79038095D02*
X109407857Y-78990476D01*
X109407857Y-78990476D02*
X109503095Y-78942857D01*
X109503095Y-78942857D02*
X109645952Y-78942857D01*
X109645952Y-78942857D02*
X109741190Y-78990476D01*
X109741190Y-78990476D02*
X109788809Y-79038095D01*
X109788809Y-79038095D02*
X109836428Y-79133333D01*
X109836428Y-79133333D02*
X109836428Y-79514285D01*
X110312619Y-77990476D02*
X110312619Y-78561904D01*
X110312619Y-78276190D02*
X109312619Y-78276190D01*
X109312619Y-78276190D02*
X109455476Y-78371428D01*
X109455476Y-78371428D02*
X109550714Y-78466666D01*
X109550714Y-78466666D02*
X109598333Y-78561904D01*
X109407857Y-77609523D02*
X109360238Y-77561904D01*
X109360238Y-77561904D02*
X109312619Y-77466666D01*
X109312619Y-77466666D02*
X109312619Y-77228571D01*
X109312619Y-77228571D02*
X109360238Y-77133333D01*
X109360238Y-77133333D02*
X109407857Y-77085714D01*
X109407857Y-77085714D02*
X109503095Y-77038095D01*
X109503095Y-77038095D02*
X109598333Y-77038095D01*
X109598333Y-77038095D02*
X109741190Y-77085714D01*
X109741190Y-77085714D02*
X110312619Y-77657142D01*
X110312619Y-77657142D02*
X110312619Y-77038095D01*
%TO.C,U2*%
X118988095Y-64112619D02*
X118988095Y-64922142D01*
X118988095Y-64922142D02*
X119035714Y-65017380D01*
X119035714Y-65017380D02*
X119083333Y-65065000D01*
X119083333Y-65065000D02*
X119178571Y-65112619D01*
X119178571Y-65112619D02*
X119369047Y-65112619D01*
X119369047Y-65112619D02*
X119464285Y-65065000D01*
X119464285Y-65065000D02*
X119511904Y-65017380D01*
X119511904Y-65017380D02*
X119559523Y-64922142D01*
X119559523Y-64922142D02*
X119559523Y-64112619D01*
X119988095Y-64207857D02*
X120035714Y-64160238D01*
X120035714Y-64160238D02*
X120130952Y-64112619D01*
X120130952Y-64112619D02*
X120369047Y-64112619D01*
X120369047Y-64112619D02*
X120464285Y-64160238D01*
X120464285Y-64160238D02*
X120511904Y-64207857D01*
X120511904Y-64207857D02*
X120559523Y-64303095D01*
X120559523Y-64303095D02*
X120559523Y-64398333D01*
X120559523Y-64398333D02*
X120511904Y-64541190D01*
X120511904Y-64541190D02*
X119940476Y-65112619D01*
X119940476Y-65112619D02*
X120559523Y-65112619D01*
X114988094Y-69176904D02*
X115464284Y-69176904D01*
X114892856Y-69462619D02*
X115226189Y-68462619D01*
X115226189Y-68462619D02*
X115559522Y-69462619D01*
X115892856Y-68795952D02*
X115892856Y-69462619D01*
X115892856Y-68891190D02*
X115940475Y-68843571D01*
X115940475Y-68843571D02*
X116035713Y-68795952D01*
X116035713Y-68795952D02*
X116178570Y-68795952D01*
X116178570Y-68795952D02*
X116273808Y-68843571D01*
X116273808Y-68843571D02*
X116321427Y-68938809D01*
X116321427Y-68938809D02*
X116321427Y-69462619D01*
X116654761Y-68795952D02*
X117035713Y-68795952D01*
X116797618Y-68462619D02*
X116797618Y-69319761D01*
X116797618Y-69319761D02*
X116845237Y-69415000D01*
X116845237Y-69415000D02*
X116940475Y-69462619D01*
X116940475Y-69462619D02*
X117035713Y-69462619D01*
X117749999Y-69415000D02*
X117654761Y-69462619D01*
X117654761Y-69462619D02*
X117464285Y-69462619D01*
X117464285Y-69462619D02*
X117369047Y-69415000D01*
X117369047Y-69415000D02*
X117321428Y-69319761D01*
X117321428Y-69319761D02*
X117321428Y-68938809D01*
X117321428Y-68938809D02*
X117369047Y-68843571D01*
X117369047Y-68843571D02*
X117464285Y-68795952D01*
X117464285Y-68795952D02*
X117654761Y-68795952D01*
X117654761Y-68795952D02*
X117749999Y-68843571D01*
X117749999Y-68843571D02*
X117797618Y-68938809D01*
X117797618Y-68938809D02*
X117797618Y-69034047D01*
X117797618Y-69034047D02*
X117321428Y-69129285D01*
X118226190Y-68795952D02*
X118226190Y-69462619D01*
X118226190Y-68891190D02*
X118273809Y-68843571D01*
X118273809Y-68843571D02*
X118369047Y-68795952D01*
X118369047Y-68795952D02*
X118511904Y-68795952D01*
X118511904Y-68795952D02*
X118607142Y-68843571D01*
X118607142Y-68843571D02*
X118654761Y-68938809D01*
X118654761Y-68938809D02*
X118654761Y-69462619D01*
X119130952Y-68795952D02*
X119130952Y-69462619D01*
X119130952Y-68891190D02*
X119178571Y-68843571D01*
X119178571Y-68843571D02*
X119273809Y-68795952D01*
X119273809Y-68795952D02*
X119416666Y-68795952D01*
X119416666Y-68795952D02*
X119511904Y-68843571D01*
X119511904Y-68843571D02*
X119559523Y-68938809D01*
X119559523Y-68938809D02*
X119559523Y-69462619D01*
X120464285Y-69462619D02*
X120464285Y-68938809D01*
X120464285Y-68938809D02*
X120416666Y-68843571D01*
X120416666Y-68843571D02*
X120321428Y-68795952D01*
X120321428Y-68795952D02*
X120130952Y-68795952D01*
X120130952Y-68795952D02*
X120035714Y-68843571D01*
X120464285Y-69415000D02*
X120369047Y-69462619D01*
X120369047Y-69462619D02*
X120130952Y-69462619D01*
X120130952Y-69462619D02*
X120035714Y-69415000D01*
X120035714Y-69415000D02*
X119988095Y-69319761D01*
X119988095Y-69319761D02*
X119988095Y-69224523D01*
X119988095Y-69224523D02*
X120035714Y-69129285D01*
X120035714Y-69129285D02*
X120130952Y-69081666D01*
X120130952Y-69081666D02*
X120369047Y-69081666D01*
X120369047Y-69081666D02*
X120464285Y-69034047D01*
X121654762Y-69176904D02*
X122130952Y-69176904D01*
X121559524Y-69462619D02*
X121892857Y-68462619D01*
X121892857Y-68462619D02*
X122226190Y-69462619D01*
X122559524Y-69462619D02*
X122559524Y-68795952D01*
X122559524Y-68986428D02*
X122607143Y-68891190D01*
X122607143Y-68891190D02*
X122654762Y-68843571D01*
X122654762Y-68843571D02*
X122750000Y-68795952D01*
X122750000Y-68795952D02*
X122845238Y-68795952D01*
X123559524Y-69415000D02*
X123464286Y-69462619D01*
X123464286Y-69462619D02*
X123273810Y-69462619D01*
X123273810Y-69462619D02*
X123178572Y-69415000D01*
X123178572Y-69415000D02*
X123130953Y-69319761D01*
X123130953Y-69319761D02*
X123130953Y-68938809D01*
X123130953Y-68938809D02*
X123178572Y-68843571D01*
X123178572Y-68843571D02*
X123273810Y-68795952D01*
X123273810Y-68795952D02*
X123464286Y-68795952D01*
X123464286Y-68795952D02*
X123559524Y-68843571D01*
X123559524Y-68843571D02*
X123607143Y-68938809D01*
X123607143Y-68938809D02*
X123607143Y-69034047D01*
X123607143Y-69034047D02*
X123130953Y-69129285D01*
X124464286Y-69462619D02*
X124464286Y-68938809D01*
X124464286Y-68938809D02*
X124416667Y-68843571D01*
X124416667Y-68843571D02*
X124321429Y-68795952D01*
X124321429Y-68795952D02*
X124130953Y-68795952D01*
X124130953Y-68795952D02*
X124035715Y-68843571D01*
X124464286Y-69415000D02*
X124369048Y-69462619D01*
X124369048Y-69462619D02*
X124130953Y-69462619D01*
X124130953Y-69462619D02*
X124035715Y-69415000D01*
X124035715Y-69415000D02*
X123988096Y-69319761D01*
X123988096Y-69319761D02*
X123988096Y-69224523D01*
X123988096Y-69224523D02*
X124035715Y-69129285D01*
X124035715Y-69129285D02*
X124130953Y-69081666D01*
X124130953Y-69081666D02*
X124369048Y-69081666D01*
X124369048Y-69081666D02*
X124464286Y-69034047D01*
%TO.C,U3*%
X102153619Y-83169904D02*
X102963142Y-83169904D01*
X102963142Y-83169904D02*
X103058380Y-83122285D01*
X103058380Y-83122285D02*
X103106000Y-83074666D01*
X103106000Y-83074666D02*
X103153619Y-82979428D01*
X103153619Y-82979428D02*
X103153619Y-82788952D01*
X103153619Y-82788952D02*
X103106000Y-82693714D01*
X103106000Y-82693714D02*
X103058380Y-82646095D01*
X103058380Y-82646095D02*
X102963142Y-82598476D01*
X102963142Y-82598476D02*
X102153619Y-82598476D01*
X102153619Y-82217523D02*
X102153619Y-81598476D01*
X102153619Y-81598476D02*
X102534571Y-81931809D01*
X102534571Y-81931809D02*
X102534571Y-81788952D01*
X102534571Y-81788952D02*
X102582190Y-81693714D01*
X102582190Y-81693714D02*
X102629809Y-81646095D01*
X102629809Y-81646095D02*
X102725047Y-81598476D01*
X102725047Y-81598476D02*
X102963142Y-81598476D01*
X102963142Y-81598476D02*
X103058380Y-81646095D01*
X103058380Y-81646095D02*
X103106000Y-81693714D01*
X103106000Y-81693714D02*
X103153619Y-81788952D01*
X103153619Y-81788952D02*
X103153619Y-82074666D01*
X103153619Y-82074666D02*
X103106000Y-82169904D01*
X103106000Y-82169904D02*
X103058380Y-82217523D01*
%TO.C,C3*%
X103993333Y-78763380D02*
X103945714Y-78811000D01*
X103945714Y-78811000D02*
X103802857Y-78858619D01*
X103802857Y-78858619D02*
X103707619Y-78858619D01*
X103707619Y-78858619D02*
X103564762Y-78811000D01*
X103564762Y-78811000D02*
X103469524Y-78715761D01*
X103469524Y-78715761D02*
X103421905Y-78620523D01*
X103421905Y-78620523D02*
X103374286Y-78430047D01*
X103374286Y-78430047D02*
X103374286Y-78287190D01*
X103374286Y-78287190D02*
X103421905Y-78096714D01*
X103421905Y-78096714D02*
X103469524Y-78001476D01*
X103469524Y-78001476D02*
X103564762Y-77906238D01*
X103564762Y-77906238D02*
X103707619Y-77858619D01*
X103707619Y-77858619D02*
X103802857Y-77858619D01*
X103802857Y-77858619D02*
X103945714Y-77906238D01*
X103945714Y-77906238D02*
X103993333Y-77953857D01*
X104326667Y-77858619D02*
X104945714Y-77858619D01*
X104945714Y-77858619D02*
X104612381Y-78239571D01*
X104612381Y-78239571D02*
X104755238Y-78239571D01*
X104755238Y-78239571D02*
X104850476Y-78287190D01*
X104850476Y-78287190D02*
X104898095Y-78334809D01*
X104898095Y-78334809D02*
X104945714Y-78430047D01*
X104945714Y-78430047D02*
X104945714Y-78668142D01*
X104945714Y-78668142D02*
X104898095Y-78763380D01*
X104898095Y-78763380D02*
X104850476Y-78811000D01*
X104850476Y-78811000D02*
X104755238Y-78858619D01*
X104755238Y-78858619D02*
X104469524Y-78858619D01*
X104469524Y-78858619D02*
X104374286Y-78811000D01*
X104374286Y-78811000D02*
X104326667Y-78763380D01*
%TO.C,U1*%
X131978095Y-79982619D02*
X131978095Y-80792142D01*
X131978095Y-80792142D02*
X132025714Y-80887380D01*
X132025714Y-80887380D02*
X132073333Y-80935000D01*
X132073333Y-80935000D02*
X132168571Y-80982619D01*
X132168571Y-80982619D02*
X132359047Y-80982619D01*
X132359047Y-80982619D02*
X132454285Y-80935000D01*
X132454285Y-80935000D02*
X132501904Y-80887380D01*
X132501904Y-80887380D02*
X132549523Y-80792142D01*
X132549523Y-80792142D02*
X132549523Y-79982619D01*
X133549523Y-80982619D02*
X132978095Y-80982619D01*
X133263809Y-80982619D02*
X133263809Y-79982619D01*
X133263809Y-79982619D02*
X133168571Y-80125476D01*
X133168571Y-80125476D02*
X133073333Y-80220714D01*
X133073333Y-80220714D02*
X132978095Y-80268333D01*
%TO.C,+BAT1*%
X104433333Y-89081666D02*
X105195238Y-89081666D01*
X104814285Y-89462619D02*
X104814285Y-88700714D01*
X106004761Y-88938809D02*
X106147618Y-88986428D01*
X106147618Y-88986428D02*
X106195237Y-89034047D01*
X106195237Y-89034047D02*
X106242856Y-89129285D01*
X106242856Y-89129285D02*
X106242856Y-89272142D01*
X106242856Y-89272142D02*
X106195237Y-89367380D01*
X106195237Y-89367380D02*
X106147618Y-89415000D01*
X106147618Y-89415000D02*
X106052380Y-89462619D01*
X106052380Y-89462619D02*
X105671428Y-89462619D01*
X105671428Y-89462619D02*
X105671428Y-88462619D01*
X105671428Y-88462619D02*
X106004761Y-88462619D01*
X106004761Y-88462619D02*
X106099999Y-88510238D01*
X106099999Y-88510238D02*
X106147618Y-88557857D01*
X106147618Y-88557857D02*
X106195237Y-88653095D01*
X106195237Y-88653095D02*
X106195237Y-88748333D01*
X106195237Y-88748333D02*
X106147618Y-88843571D01*
X106147618Y-88843571D02*
X106099999Y-88891190D01*
X106099999Y-88891190D02*
X106004761Y-88938809D01*
X106004761Y-88938809D02*
X105671428Y-88938809D01*
X106623809Y-89176904D02*
X107099999Y-89176904D01*
X106528571Y-89462619D02*
X106861904Y-88462619D01*
X106861904Y-88462619D02*
X107195237Y-89462619D01*
X107385714Y-88462619D02*
X107957142Y-88462619D01*
X107671428Y-89462619D02*
X107671428Y-88462619D01*
X108814285Y-89462619D02*
X108242857Y-89462619D01*
X108528571Y-89462619D02*
X108528571Y-88462619D01*
X108528571Y-88462619D02*
X108433333Y-88605476D01*
X108433333Y-88605476D02*
X108338095Y-88700714D01*
X108338095Y-88700714D02*
X108242857Y-88748333D01*
%TO.C,C5*%
X135637333Y-82873380D02*
X135589714Y-82921000D01*
X135589714Y-82921000D02*
X135446857Y-82968619D01*
X135446857Y-82968619D02*
X135351619Y-82968619D01*
X135351619Y-82968619D02*
X135208762Y-82921000D01*
X135208762Y-82921000D02*
X135113524Y-82825761D01*
X135113524Y-82825761D02*
X135065905Y-82730523D01*
X135065905Y-82730523D02*
X135018286Y-82540047D01*
X135018286Y-82540047D02*
X135018286Y-82397190D01*
X135018286Y-82397190D02*
X135065905Y-82206714D01*
X135065905Y-82206714D02*
X135113524Y-82111476D01*
X135113524Y-82111476D02*
X135208762Y-82016238D01*
X135208762Y-82016238D02*
X135351619Y-81968619D01*
X135351619Y-81968619D02*
X135446857Y-81968619D01*
X135446857Y-81968619D02*
X135589714Y-82016238D01*
X135589714Y-82016238D02*
X135637333Y-82063857D01*
X136542095Y-81968619D02*
X136065905Y-81968619D01*
X136065905Y-81968619D02*
X136018286Y-82444809D01*
X136018286Y-82444809D02*
X136065905Y-82397190D01*
X136065905Y-82397190D02*
X136161143Y-82349571D01*
X136161143Y-82349571D02*
X136399238Y-82349571D01*
X136399238Y-82349571D02*
X136494476Y-82397190D01*
X136494476Y-82397190D02*
X136542095Y-82444809D01*
X136542095Y-82444809D02*
X136589714Y-82540047D01*
X136589714Y-82540047D02*
X136589714Y-82778142D01*
X136589714Y-82778142D02*
X136542095Y-82873380D01*
X136542095Y-82873380D02*
X136494476Y-82921000D01*
X136494476Y-82921000D02*
X136399238Y-82968619D01*
X136399238Y-82968619D02*
X136161143Y-82968619D01*
X136161143Y-82968619D02*
X136065905Y-82921000D01*
X136065905Y-82921000D02*
X136018286Y-82873380D01*
%TO.C,R1*%
X106890619Y-70351666D02*
X106414428Y-70684999D01*
X106890619Y-70923094D02*
X105890619Y-70923094D01*
X105890619Y-70923094D02*
X105890619Y-70542142D01*
X105890619Y-70542142D02*
X105938238Y-70446904D01*
X105938238Y-70446904D02*
X105985857Y-70399285D01*
X105985857Y-70399285D02*
X106081095Y-70351666D01*
X106081095Y-70351666D02*
X106223952Y-70351666D01*
X106223952Y-70351666D02*
X106319190Y-70399285D01*
X106319190Y-70399285D02*
X106366809Y-70446904D01*
X106366809Y-70446904D02*
X106414428Y-70542142D01*
X106414428Y-70542142D02*
X106414428Y-70923094D01*
X106890619Y-69399285D02*
X106890619Y-69970713D01*
X106890619Y-69684999D02*
X105890619Y-69684999D01*
X105890619Y-69684999D02*
X106033476Y-69780237D01*
X106033476Y-69780237D02*
X106128714Y-69875475D01*
X106128714Y-69875475D02*
X106176333Y-69970713D01*
%TO.C,R4*%
X122933333Y-88512619D02*
X122600000Y-88036428D01*
X122361905Y-88512619D02*
X122361905Y-87512619D01*
X122361905Y-87512619D02*
X122742857Y-87512619D01*
X122742857Y-87512619D02*
X122838095Y-87560238D01*
X122838095Y-87560238D02*
X122885714Y-87607857D01*
X122885714Y-87607857D02*
X122933333Y-87703095D01*
X122933333Y-87703095D02*
X122933333Y-87845952D01*
X122933333Y-87845952D02*
X122885714Y-87941190D01*
X122885714Y-87941190D02*
X122838095Y-87988809D01*
X122838095Y-87988809D02*
X122742857Y-88036428D01*
X122742857Y-88036428D02*
X122361905Y-88036428D01*
X123790476Y-87845952D02*
X123790476Y-88512619D01*
X123552381Y-87465000D02*
X123314286Y-88179285D01*
X123314286Y-88179285D02*
X123933333Y-88179285D01*
%TO.C,R11*%
X106912619Y-83842857D02*
X106436428Y-84176190D01*
X106912619Y-84414285D02*
X105912619Y-84414285D01*
X105912619Y-84414285D02*
X105912619Y-84033333D01*
X105912619Y-84033333D02*
X105960238Y-83938095D01*
X105960238Y-83938095D02*
X106007857Y-83890476D01*
X106007857Y-83890476D02*
X106103095Y-83842857D01*
X106103095Y-83842857D02*
X106245952Y-83842857D01*
X106245952Y-83842857D02*
X106341190Y-83890476D01*
X106341190Y-83890476D02*
X106388809Y-83938095D01*
X106388809Y-83938095D02*
X106436428Y-84033333D01*
X106436428Y-84033333D02*
X106436428Y-84414285D01*
X106912619Y-82890476D02*
X106912619Y-83461904D01*
X106912619Y-83176190D02*
X105912619Y-83176190D01*
X105912619Y-83176190D02*
X106055476Y-83271428D01*
X106055476Y-83271428D02*
X106150714Y-83366666D01*
X106150714Y-83366666D02*
X106198333Y-83461904D01*
X106912619Y-81938095D02*
X106912619Y-82509523D01*
X106912619Y-82223809D02*
X105912619Y-82223809D01*
X105912619Y-82223809D02*
X106055476Y-82319047D01*
X106055476Y-82319047D02*
X106150714Y-82414285D01*
X106150714Y-82414285D02*
X106198333Y-82509523D01*
%TO.C,U4*%
X110938095Y-87105619D02*
X110938095Y-87915142D01*
X110938095Y-87915142D02*
X110985714Y-88010380D01*
X110985714Y-88010380D02*
X111033333Y-88058000D01*
X111033333Y-88058000D02*
X111128571Y-88105619D01*
X111128571Y-88105619D02*
X111319047Y-88105619D01*
X111319047Y-88105619D02*
X111414285Y-88058000D01*
X111414285Y-88058000D02*
X111461904Y-88010380D01*
X111461904Y-88010380D02*
X111509523Y-87915142D01*
X111509523Y-87915142D02*
X111509523Y-87105619D01*
X112414285Y-87438952D02*
X112414285Y-88105619D01*
X112176190Y-87058000D02*
X111938095Y-87772285D01*
X111938095Y-87772285D02*
X112557142Y-87772285D01*
D11*
%TO.C,R7*%
X132842224Y-78422500D02*
X132332776Y-78422500D01*
X132842224Y-77377500D02*
X132332776Y-77377500D01*
%TO.C,R6*%
X132454724Y-73922500D02*
X131945276Y-73922500D01*
X132454724Y-72877500D02*
X131945276Y-72877500D01*
%TO.C,R5*%
X135054724Y-80522500D02*
X134545276Y-80522500D01*
X135054724Y-79477500D02*
X134545276Y-79477500D01*
%TO.C,C2*%
X104938748Y-77465000D02*
X105461252Y-77465000D01*
X104938748Y-78935000D02*
X105461252Y-78935000D01*
%TO.C,C4*%
X132438748Y-87065000D02*
X132961252Y-87065000D01*
X132438748Y-88535000D02*
X132961252Y-88535000D01*
%TO.C,R2*%
X111532936Y-93245000D02*
X111987064Y-93245000D01*
X111532936Y-94715000D02*
X111987064Y-94715000D01*
%TO.C,C1*%
X105417252Y-86587000D02*
X104894748Y-86587000D01*
X105417252Y-85117000D02*
X104894748Y-85117000D01*
%TO.C,R3*%
X116827064Y-90635000D02*
X116372936Y-90635000D01*
X116827064Y-89165000D02*
X116372936Y-89165000D01*
%TO.C,-BAT1*%
X132600000Y-90800000D02*
G75*
G03*
X132600000Y-90800000I-1200000J0D01*
G01*
%TO.C,R12*%
X108935000Y-78072936D02*
X108935000Y-78527064D01*
X107465000Y-78072936D02*
X107465000Y-78527064D01*
%TO.C,U2*%
X110750000Y-66400000D02*
X110750000Y-72900000D01*
X110750000Y-66400000D02*
X128750000Y-66400000D01*
X110750000Y-86400000D02*
X110750000Y-86150000D01*
X128750000Y-66400000D02*
X128750000Y-72900000D01*
X128750000Y-72400000D02*
X110800000Y-72400000D01*
X128750000Y-86150000D02*
X128750000Y-86400000D01*
X128750000Y-86400000D02*
X110750000Y-86400000D01*
%TO.C,J1*%
X115054000Y-93908000D02*
X115054000Y-95828000D01*
X115054000Y-99543000D02*
X115054000Y-97838000D01*
X124214000Y-95828000D02*
X124214000Y-93908000D01*
X124214000Y-97838000D02*
X124214000Y-99543000D01*
X124214000Y-99543000D02*
X115054000Y-99543000D01*
%TO.C,U3*%
X106850000Y-80550000D02*
X106850000Y-82950000D01*
X103550000Y-81150000D02*
X103550000Y-82950000D01*
X106850000Y-82950000D02*
X105800000Y-82950000D01*
X103550000Y-82950000D02*
X104600000Y-82950000D01*
%TO.C,C3*%
X104938748Y-75465000D02*
X105461252Y-75465000D01*
X104938748Y-76935000D02*
X105461252Y-76935000D01*
%TO.C,U1*%
X132000000Y-84000000D02*
X133600000Y-84000000D01*
X133600000Y-82200000D02*
X131700000Y-82200000D01*
%TO.C,+BAT1*%
X109000000Y-90800000D02*
G75*
G03*
X109000000Y-90800000I-1200000J0D01*
G01*
%TO.C,C5*%
X132738748Y-84965000D02*
X133261252Y-84965000D01*
X132738748Y-86435000D02*
X133261252Y-86435000D01*
%TO.C,R1*%
X107235000Y-72872936D02*
X107235000Y-73327064D01*
X105765000Y-72872936D02*
X105765000Y-73327064D01*
%TO.C,R4*%
X122872936Y-88965000D02*
X123327064Y-88965000D01*
X122872936Y-90435000D02*
X123327064Y-90435000D01*
%TO.C,R11*%
X107365000Y-83427064D02*
X107365000Y-82972936D01*
X108835000Y-83427064D02*
X108835000Y-82972936D01*
%TO.C,U4*%
X111700000Y-88483000D02*
X109900000Y-88483000D01*
X111700000Y-88483000D02*
X112500000Y-88483000D01*
X111700000Y-91603000D02*
X110900000Y-91603000D01*
X111700000Y-91603000D02*
X112500000Y-91603000D01*
%TD*%
M02*
