M48
; DRILL file {KiCad 7.0.2} date Sat Nov 25 23:14:49 2023
; FORMAT={-:-/ absolute / inch / decimal}
; #@! TF.CreationDate,2023-11-25T23:14:49+00:00
; #@! TF.GenerationSoftware,Kicad,Pcbnew,7.0.2
; #@! TF.FileFunction,Plated,1,2,PTH
FMAT,2
INCH
; #@! TA.AperFunction,Plated,PTH,ViaDrill
T1C0.0157
; #@! TA.AperFunction,Plated,PTH,ComponentDrill
T2C0.0236
; #@! TA.AperFunction,Plated,PTH,ComponentDrill
T3C0.0354
%
G90
G05
T1
X4.12Y-3.45
X4.1826Y-3.0787
X4.29Y-3.38
X4.3701Y-2.8937
X4.4409Y-3.7598
X4.5512Y-3.4646
X4.66Y-3.1
X4.66Y-3.14
X4.66Y-3.18
X4.71Y-3.23
X4.75Y-3.23
X4.8Y-3.23
X4.84Y-3.1
X4.84Y-3.14
X4.84Y-3.18
X4.9449Y-3.5315
X4.95Y-3.0638
X5.08Y-3.575
X5.0945Y-3.6496
X5.1348Y-3.2835
T3
X5.1453Y-2.9606
X5.1953Y-2.9606
X5.2453Y-2.9606
X5.2953Y-2.9606
T2
G00X4.5399Y-3.6253
M15
G01X4.5399Y-3.6686
M16
G05
G00X4.5399Y-3.7966
M15
G01X4.5399Y-3.8281
M16
G05
G00X4.8801Y-3.6253
M15
G01X4.8801Y-3.6686
M16
G05
G00X4.8801Y-3.7966
M15
G01X4.8801Y-3.8281
M16
G05
T0
M30
