%TF.GenerationSoftware,KiCad,Pcbnew,7.0.2*%
%TF.CreationDate,2023-11-25T23:14:47+00:00*%
%TF.ProjectId,simpleclick,73696d70-6c65-4636-9c69-636b2e6b6963,rev?*%
%TF.SameCoordinates,Original*%
%TF.FileFunction,Copper,L2,Bot*%
%TF.FilePolarity,Positive*%
%FSLAX46Y46*%
G04 Gerber Fmt 4.6, Leading zero omitted, Abs format (unit mm)*
G04 Created by KiCad (PCBNEW 7.0.2) date 2023-11-25 23:14:47*
%MOMM*%
%LPD*%
G01*
G04 APERTURE LIST*
G04 Aperture macros list*
%AMRoundRect*
0 Rectangle with rounded corners*
0 $1 Rounding radius*
0 $2 $3 $4 $5 $6 $7 $8 $9 X,Y pos of 4 corners*
0 Add a 4 corners polygon primitive as box body*
4,1,4,$2,$3,$4,$5,$6,$7,$8,$9,$2,$3,0*
0 Add four circle primitives for the rounded corners*
1,1,$1+$1,$2,$3*
1,1,$1+$1,$4,$5*
1,1,$1+$1,$6,$7*
1,1,$1+$1,$8,$9*
0 Add four rect primitives between the rounded corners*
20,1,$1+$1,$2,$3,$4,$5,0*
20,1,$1+$1,$4,$5,$6,$7,0*
20,1,$1+$1,$6,$7,$8,$9,0*
20,1,$1+$1,$8,$9,$2,$3,0*%
G04 Aperture macros list end*
%TA.AperFunction,ComponentPad*%
%ADD10O,1.000000X2.100000*%
%TD*%
%TA.AperFunction,ComponentPad*%
%ADD11O,1.000000X1.800000*%
%TD*%
%TA.AperFunction,ComponentPad*%
%ADD12R,1.070000X1.800000*%
%TD*%
%TA.AperFunction,ComponentPad*%
%ADD13O,1.070000X1.800000*%
%TD*%
%TA.AperFunction,SMDPad,CuDef*%
%ADD14RoundRect,0.381000X0.762000X0.381000X-0.762000X0.381000X-0.762000X-0.381000X0.762000X-0.381000X0*%
%TD*%
%TA.AperFunction,ViaPad*%
%ADD15C,1.200000*%
%TD*%
%TA.AperFunction,ViaPad*%
%ADD16C,0.800000*%
%TD*%
%TA.AperFunction,Conductor*%
%ADD17C,0.250000*%
%TD*%
G04 APERTURE END LIST*
D10*
%TO.P,J1,S1,SHIELD*%
%TO.N,GND*%
X115314000Y-92633000D03*
D11*
X115314000Y-96833000D03*
D10*
X123954000Y-92633000D03*
D11*
X123954000Y-96833000D03*
%TD*%
D12*
%TO.P,D1,1,RK*%
%TO.N,Net-(D1-RK)*%
X134500000Y-75200000D03*
D13*
%TO.P,D1,2,GK*%
%TO.N,Net-(D1-GK)*%
X133230000Y-75200000D03*
%TO.P,D1,3,BK*%
%TO.N,Net-(D1-BK)*%
X131960000Y-75200000D03*
%TO.P,D1,4,A*%
%TO.N,+3.3V*%
X130690000Y-75200000D03*
%TD*%
D14*
%TO.P,SW1,1,A*%
%TO.N,Net-(SW1-A)*%
X125730000Y-77820000D03*
X113730000Y-77820000D03*
%TO.P,SW1,2,B*%
%TO.N,GND*%
X125730000Y-83820000D03*
X113730000Y-83820000D03*
%TD*%
D15*
%TO.N,GND*%
X115600000Y-88000000D03*
D16*
X122936000Y-79756000D03*
X106237500Y-78200000D03*
X121920000Y-82042000D03*
X118364000Y-78740000D03*
X112800000Y-95500000D03*
X119634000Y-82042000D03*
D15*
X129032000Y-90805000D03*
D16*
X108966000Y-85852000D03*
X118364000Y-79756000D03*
D15*
X129400000Y-92700000D03*
D16*
X118364000Y-80772000D03*
X130424500Y-83400000D03*
X122936000Y-80772000D03*
X122936000Y-78740000D03*
D15*
X125600000Y-89700000D03*
D16*
X120650000Y-82042000D03*
X104648000Y-87630000D03*
%TO.N,+3.3V*%
X111000000Y-73500000D03*
%TO.N,Net-(SW1-A)*%
X125730000Y-77820000D03*
%TD*%
D17*
%TO.N,GND*%
X124596000Y-92574000D02*
X123952000Y-92574000D01*
%TO.N,+3.3V*%
X117500000Y-75200000D02*
X115800000Y-73500000D01*
X130690000Y-75200000D02*
X117500000Y-75200000D01*
X115800000Y-73500000D02*
X111000000Y-73500000D01*
%TO.N,Net-(SW1-A)*%
X113730000Y-77820000D02*
X125730000Y-77820000D01*
%TD*%
%TA.AperFunction,Conductor*%
%TO.N,GND*%
G36*
X110695509Y-66529327D02*
G01*
X110739991Y-66583208D01*
X110750000Y-66632014D01*
X110749999Y-72400000D01*
X110780272Y-72430272D01*
X110813757Y-72491595D01*
X110808773Y-72561287D01*
X110766901Y-72617220D01*
X110731903Y-72633103D01*
X110732104Y-72633554D01*
X110547269Y-72715848D01*
X110394129Y-72827110D01*
X110267466Y-72967783D01*
X110172820Y-73131715D01*
X110114326Y-73311742D01*
X110094540Y-73499999D01*
X110114326Y-73688257D01*
X110172820Y-73868284D01*
X110267466Y-74032216D01*
X110394129Y-74172889D01*
X110547269Y-74284151D01*
X110720197Y-74361144D01*
X110905352Y-74400500D01*
X111094646Y-74400500D01*
X111094648Y-74400500D01*
X111218084Y-74374262D01*
X111279803Y-74361144D01*
X111452730Y-74284151D01*
X111605871Y-74172888D01*
X111611598Y-74166527D01*
X111671084Y-74129879D01*
X111703747Y-74125500D01*
X115489548Y-74125500D01*
X115556587Y-74145185D01*
X115577229Y-74161819D01*
X116999196Y-75583787D01*
X117012096Y-75599888D01*
X117063223Y-75647900D01*
X117066020Y-75650611D01*
X117085529Y-75670120D01*
X117088709Y-75672587D01*
X117097571Y-75680155D01*
X117129418Y-75710062D01*
X117146972Y-75719712D01*
X117163236Y-75730396D01*
X117174972Y-75739499D01*
X117179064Y-75742673D01*
X117203909Y-75753424D01*
X117219152Y-75760021D01*
X117229631Y-75765154D01*
X117267908Y-75786197D01*
X117287306Y-75791177D01*
X117305708Y-75797477D01*
X117324104Y-75805438D01*
X117367261Y-75812273D01*
X117378664Y-75814634D01*
X117420981Y-75825500D01*
X117441016Y-75825500D01*
X117460413Y-75827026D01*
X117480196Y-75830160D01*
X117523674Y-75826050D01*
X117535344Y-75825500D01*
X129594963Y-75825500D01*
X129662002Y-75845185D01*
X129707757Y-75897989D01*
X129713623Y-75913504D01*
X129728693Y-75963185D01*
X129728694Y-75963186D01*
X129824848Y-76143076D01*
X129875409Y-76204685D01*
X129954247Y-76300752D01*
X130055000Y-76383436D01*
X130111924Y-76430152D01*
X130291814Y-76526306D01*
X130487007Y-76585517D01*
X130690000Y-76605510D01*
X130892993Y-76585517D01*
X131088186Y-76526306D01*
X131266549Y-76430968D01*
X131334948Y-76416727D01*
X131383451Y-76430968D01*
X131561814Y-76526306D01*
X131757007Y-76585517D01*
X131960000Y-76605510D01*
X132162993Y-76585517D01*
X132358186Y-76526306D01*
X132536548Y-76430968D01*
X132604949Y-76416727D01*
X132653450Y-76430968D01*
X132831814Y-76526306D01*
X133027007Y-76585517D01*
X133230000Y-76605510D01*
X133432993Y-76585517D01*
X133618738Y-76529171D01*
X133688602Y-76528549D01*
X133709419Y-76538853D01*
X133722666Y-76543793D01*
X133722669Y-76543796D01*
X133857517Y-76594091D01*
X133917127Y-76600500D01*
X135082872Y-76600499D01*
X135142483Y-76594091D01*
X135277331Y-76543796D01*
X135392546Y-76457546D01*
X135478796Y-76342331D01*
X135529091Y-76207483D01*
X135535500Y-76147873D01*
X135535499Y-74406753D01*
X135555184Y-74339715D01*
X135607987Y-74293960D01*
X135677146Y-74284016D01*
X135740702Y-74313041D01*
X135773339Y-74357601D01*
X135777587Y-74367437D01*
X135778340Y-74369181D01*
X135932145Y-74728349D01*
X135985225Y-74855417D01*
X135986336Y-74858170D01*
X136072901Y-75080221D01*
X136089781Y-75125105D01*
X136230677Y-75502863D01*
X136250608Y-75557850D01*
X136280697Y-75640863D01*
X136281653Y-75643603D01*
X136357478Y-75869569D01*
X136363931Y-75889593D01*
X136492281Y-76291109D01*
X136538143Y-76439489D01*
X136538986Y-76442336D01*
X136603302Y-76669600D01*
X136716286Y-77091261D01*
X136742846Y-77194500D01*
X136757009Y-77249548D01*
X136757715Y-77252434D01*
X136809783Y-77477014D01*
X136902133Y-77901539D01*
X136936797Y-78069232D01*
X136937363Y-78072146D01*
X136977554Y-78293189D01*
X136982182Y-78320704D01*
X137049324Y-78719984D01*
X137077074Y-78896573D01*
X137077500Y-78899510D01*
X137106257Y-79116263D01*
X137157489Y-79544757D01*
X137177525Y-79729696D01*
X137177809Y-79732651D01*
X137195624Y-79944399D01*
X137226353Y-80374052D01*
X137237912Y-80566604D01*
X137238054Y-80569569D01*
X137245470Y-80775630D01*
X137255711Y-81205827D01*
X137258106Y-81405515D01*
X137258106Y-81408484D01*
X137255711Y-81608175D01*
X137245470Y-82038371D01*
X137238055Y-82244430D01*
X137237912Y-82247395D01*
X137226353Y-82439950D01*
X137195624Y-82869601D01*
X137177810Y-83081348D01*
X137177526Y-83084303D01*
X137157489Y-83269245D01*
X137106257Y-83697738D01*
X137077500Y-83914490D01*
X137077075Y-83917427D01*
X137049323Y-84094018D01*
X136977559Y-84520786D01*
X136965033Y-84589672D01*
X136937365Y-84741845D01*
X136936799Y-84744758D01*
X136902132Y-84912462D01*
X136809783Y-85336987D01*
X136757716Y-85561556D01*
X136757012Y-85564438D01*
X136716295Y-85722704D01*
X136713847Y-85731843D01*
X136603301Y-86144401D01*
X136538985Y-86371663D01*
X136538143Y-86374508D01*
X136492281Y-86522889D01*
X136363945Y-86924362D01*
X136358545Y-86941122D01*
X136357478Y-86944432D01*
X136281657Y-87170382D01*
X136280679Y-87173185D01*
X136230677Y-87311136D01*
X136089771Y-87688918D01*
X136072901Y-87733779D01*
X135986343Y-87955814D01*
X135985231Y-87958567D01*
X135932145Y-88085649D01*
X135778332Y-88444837D01*
X135750802Y-88508582D01*
X135653704Y-88726198D01*
X135652462Y-88728895D01*
X135597417Y-88844714D01*
X135430319Y-89188700D01*
X135391930Y-89267040D01*
X135284491Y-89479788D01*
X135283121Y-89482422D01*
X135227323Y-89586624D01*
X135046406Y-89917951D01*
X134997104Y-90007427D01*
X134879606Y-90214748D01*
X134878111Y-90217313D01*
X134822846Y-90309596D01*
X134627530Y-90630034D01*
X134567236Y-90728029D01*
X134439907Y-90929518D01*
X134438292Y-90932007D01*
X134385048Y-91011953D01*
X134174552Y-91322960D01*
X134153018Y-91354468D01*
X134103318Y-91427186D01*
X134102561Y-91428266D01*
X133966486Y-91622323D01*
X133964754Y-91624732D01*
X133915072Y-91692090D01*
X133688527Y-91994720D01*
X133606405Y-92103308D01*
X133460348Y-92291695D01*
X133458528Y-92293986D01*
X133414063Y-92348582D01*
X133170755Y-92643260D01*
X133077652Y-92754819D01*
X132922775Y-92935936D01*
X132920819Y-92938168D01*
X132883363Y-92979902D01*
X132622387Y-93266985D01*
X132518263Y-93380239D01*
X132354877Y-93553725D01*
X132352817Y-93555860D01*
X132324423Y-93584597D01*
X132044498Y-93864524D01*
X131929538Y-93978114D01*
X131758020Y-94143569D01*
X131755860Y-94145603D01*
X131738922Y-94161176D01*
X131438467Y-94434307D01*
X131312824Y-94547075D01*
X131133557Y-94704129D01*
X131131298Y-94706060D01*
X131128663Y-94708259D01*
X130805577Y-94975022D01*
X130717693Y-95046598D01*
X130669544Y-95085812D01*
X130622550Y-95123157D01*
X130485453Y-95232105D01*
X130482621Y-95234289D01*
X130147579Y-95485099D01*
X130001166Y-95593091D01*
X129813269Y-95728234D01*
X129810373Y-95730254D01*
X129465747Y-95963505D01*
X129398258Y-96008453D01*
X129309237Y-96067743D01*
X129258898Y-96100405D01*
X129118258Y-96191657D01*
X129115307Y-96193513D01*
X128761679Y-96409062D01*
X128595353Y-96508670D01*
X128401868Y-96621411D01*
X128398871Y-96623101D01*
X128036995Y-96820701D01*
X127861148Y-96914863D01*
X127665840Y-97016449D01*
X127662806Y-97017974D01*
X127293337Y-97197452D01*
X127108300Y-97285394D01*
X126911845Y-97375889D01*
X126908783Y-97377249D01*
X126532417Y-97538420D01*
X126338578Y-97619393D01*
X126141544Y-97698937D01*
X126138463Y-97700134D01*
X125755928Y-97842814D01*
X125649685Y-97881323D01*
X125553703Y-97916113D01*
X125524739Y-97926220D01*
X125356666Y-97984868D01*
X125353574Y-97985901D01*
X124965704Y-98109890D01*
X124755998Y-98174707D01*
X124686136Y-98175695D01*
X124626829Y-98138756D01*
X124596908Y-98075617D01*
X124605872Y-98006325D01*
X124633952Y-97966361D01*
X124716672Y-97887730D01*
X124832855Y-97720805D01*
X124913059Y-97533907D01*
X124954000Y-97334688D01*
X124954000Y-97083000D01*
X124254000Y-97083000D01*
X124254000Y-96583000D01*
X124954000Y-96583000D01*
X124954000Y-96385429D01*
X124953682Y-96379164D01*
X124938580Y-96230660D01*
X124877696Y-96036610D01*
X124778996Y-95858785D01*
X124646520Y-95704468D01*
X124485692Y-95579978D01*
X124303094Y-95490410D01*
X124203999Y-95464753D01*
X124203999Y-96266888D01*
X124179543Y-96227390D01*
X124090038Y-96159799D01*
X123982160Y-96129105D01*
X123870479Y-96139454D01*
X123770078Y-96189448D01*
X123704000Y-96261930D01*
X123704000Y-95459633D01*
X123702051Y-95459932D01*
X123511336Y-95530564D01*
X123338736Y-95638145D01*
X123191330Y-95778266D01*
X123075144Y-95945194D01*
X122994940Y-96132092D01*
X122954000Y-96331311D01*
X122954000Y-96583000D01*
X123654000Y-96583000D01*
X123654000Y-97083000D01*
X122954000Y-97083000D01*
X122954000Y-97280570D01*
X122954317Y-97286835D01*
X122969419Y-97435339D01*
X123030303Y-97629389D01*
X123129003Y-97807214D01*
X123261479Y-97961531D01*
X123422307Y-98086021D01*
X123604900Y-98175586D01*
X123728191Y-98207509D01*
X123788156Y-98243369D01*
X123819215Y-98305956D01*
X123811506Y-98375399D01*
X123767478Y-98429651D01*
X123723468Y-98448717D01*
X123351238Y-98529690D01*
X123126538Y-98576139D01*
X122933114Y-98613710D01*
X122930039Y-98614267D01*
X122530633Y-98681431D01*
X122299494Y-98717755D01*
X122108382Y-98745445D01*
X122105328Y-98745849D01*
X121703687Y-98793871D01*
X121466613Y-98819556D01*
X121278334Y-98837672D01*
X121275310Y-98837925D01*
X120872213Y-98866756D01*
X120629812Y-98881307D01*
X120522563Y-98886455D01*
X120444873Y-98890184D01*
X120441897Y-98890291D01*
X120038152Y-98899902D01*
X119791003Y-98902866D01*
X119609816Y-98902866D01*
X119606871Y-98902831D01*
X119203364Y-98893225D01*
X118998987Y-98885870D01*
X118952144Y-98884185D01*
X118864559Y-98879980D01*
X118775192Y-98875691D01*
X118772297Y-98875518D01*
X118369845Y-98846734D01*
X118199171Y-98832375D01*
X118115126Y-98825304D01*
X118073301Y-98821279D01*
X117942782Y-98808720D01*
X117939945Y-98808414D01*
X117539355Y-98760518D01*
X117281896Y-98726361D01*
X117114575Y-98702116D01*
X117111800Y-98701682D01*
X116713893Y-98634771D01*
X116486008Y-98593336D01*
X116454384Y-98587586D01*
X116292444Y-98556130D01*
X116289737Y-98555572D01*
X115895371Y-98469783D01*
X115804508Y-98448717D01*
X115657791Y-98414700D01*
X115596937Y-98380383D01*
X115564293Y-98318608D01*
X115570229Y-98248991D01*
X115612861Y-98193634D01*
X115642743Y-98177627D01*
X115756663Y-98135436D01*
X115929263Y-98027854D01*
X116076669Y-97887733D01*
X116192855Y-97720805D01*
X116273059Y-97533907D01*
X116314000Y-97334688D01*
X116314000Y-97083000D01*
X115614000Y-97083000D01*
X115614000Y-96583000D01*
X116314000Y-96583000D01*
X116314000Y-96385429D01*
X116313682Y-96379164D01*
X116298580Y-96230660D01*
X116237696Y-96036610D01*
X116138996Y-95858785D01*
X116006520Y-95704468D01*
X115845692Y-95579978D01*
X115663094Y-95490410D01*
X115564000Y-95464753D01*
X115564000Y-96266889D01*
X115539543Y-96227390D01*
X115450038Y-96159799D01*
X115342160Y-96129105D01*
X115230479Y-96139454D01*
X115130078Y-96189448D01*
X115064000Y-96261930D01*
X115064000Y-95459633D01*
X115062051Y-95459932D01*
X114871336Y-95530564D01*
X114698736Y-95638145D01*
X114551330Y-95778266D01*
X114435144Y-95945194D01*
X114354940Y-96132092D01*
X114314000Y-96331311D01*
X114314000Y-96583000D01*
X115014000Y-96583000D01*
X115014000Y-97083000D01*
X114314000Y-97083000D01*
X114314000Y-97280570D01*
X114314317Y-97286835D01*
X114329419Y-97435339D01*
X114390303Y-97629389D01*
X114489003Y-97807214D01*
X114536492Y-97862532D01*
X114565224Y-97926220D01*
X114554962Y-97995332D01*
X114508964Y-98047925D01*
X114441835Y-98067301D01*
X114404650Y-98061414D01*
X114286415Y-98023619D01*
X114024962Y-97935887D01*
X113881036Y-97885663D01*
X113878565Y-97884771D01*
X113499666Y-97743450D01*
X113239082Y-97641864D01*
X113101622Y-97586369D01*
X113099237Y-97585377D01*
X112727179Y-97426052D01*
X112522412Y-97334688D01*
X112468202Y-97310500D01*
X112337428Y-97250259D01*
X112335169Y-97249190D01*
X111970681Y-97072132D01*
X111714095Y-96942557D01*
X111590191Y-96878108D01*
X111587992Y-96876936D01*
X111231905Y-96682498D01*
X110978505Y-96538887D01*
X110860551Y-96470156D01*
X110512462Y-96257984D01*
X110263101Y-96100405D01*
X110152318Y-96028524D01*
X109814187Y-95799669D01*
X109569551Y-95628132D01*
X109465957Y-95553622D01*
X109138511Y-95308499D01*
X108899444Y-95123152D01*
X108803110Y-95046598D01*
X108487034Y-94785624D01*
X108254323Y-94586629D01*
X108209174Y-94547074D01*
X108165189Y-94508538D01*
X107861255Y-94232244D01*
X107635647Y-94019772D01*
X107592193Y-93977854D01*
X107553687Y-93940709D01*
X107262576Y-93649597D01*
X107255095Y-93641843D01*
X107044888Y-93423935D01*
X107025541Y-93403392D01*
X106970032Y-93344450D01*
X106866508Y-93230570D01*
X114314000Y-93230570D01*
X114314317Y-93236835D01*
X114329419Y-93385339D01*
X114390303Y-93579389D01*
X114489003Y-93757214D01*
X114621479Y-93911531D01*
X114782307Y-94036021D01*
X114964902Y-94125587D01*
X115064000Y-94151244D01*
X115064000Y-93349110D01*
X115088457Y-93388610D01*
X115177962Y-93456201D01*
X115285840Y-93486895D01*
X115397521Y-93476546D01*
X115497922Y-93426552D01*
X115563999Y-93354069D01*
X115564000Y-94156366D01*
X115565947Y-94156068D01*
X115756663Y-94085436D01*
X115929263Y-93977854D01*
X116076669Y-93837733D01*
X116192853Y-93670808D01*
X116199463Y-93655405D01*
X116243988Y-93601560D01*
X116310556Y-93580334D01*
X116378031Y-93598467D01*
X116388903Y-93605926D01*
X116453767Y-93655698D01*
X116593764Y-93713687D01*
X116706280Y-93728500D01*
X116777667Y-93728500D01*
X116781720Y-93728500D01*
X116894236Y-93713687D01*
X117034233Y-93655698D01*
X117154451Y-93563451D01*
X117246698Y-93443233D01*
X117304687Y-93303236D01*
X117324466Y-93153000D01*
X117324466Y-93152999D01*
X121943533Y-93152999D01*
X121963312Y-93303235D01*
X121980384Y-93344450D01*
X122021302Y-93443233D01*
X122113549Y-93563451D01*
X122233767Y-93655698D01*
X122373764Y-93713687D01*
X122486280Y-93728500D01*
X122557667Y-93728500D01*
X122561720Y-93728500D01*
X122674236Y-93713687D01*
X122814233Y-93655698D01*
X122881365Y-93604185D01*
X122946530Y-93578992D01*
X123014975Y-93593030D01*
X123064966Y-93641843D01*
X123065268Y-93642385D01*
X123129003Y-93757214D01*
X123261479Y-93911531D01*
X123422307Y-94036021D01*
X123604902Y-94125587D01*
X123704000Y-94151244D01*
X123704000Y-93349110D01*
X123728457Y-93388610D01*
X123817962Y-93456201D01*
X123925840Y-93486895D01*
X124037521Y-93476546D01*
X124137922Y-93426552D01*
X124204000Y-93354069D01*
X124204000Y-94156365D01*
X124205947Y-94156068D01*
X124396663Y-94085436D01*
X124569263Y-93977854D01*
X124716669Y-93837733D01*
X124832855Y-93670805D01*
X124913059Y-93483907D01*
X124953999Y-93284688D01*
X124954000Y-92883000D01*
X124254000Y-92883000D01*
X124254000Y-92383000D01*
X124954000Y-92383000D01*
X124954000Y-92035429D01*
X124953682Y-92029164D01*
X124938580Y-91880660D01*
X124877696Y-91686610D01*
X124778996Y-91508785D01*
X124646520Y-91354468D01*
X124485692Y-91229978D01*
X124303094Y-91140410D01*
X124204000Y-91114753D01*
X124204000Y-91916889D01*
X124179543Y-91877390D01*
X124090038Y-91809799D01*
X123982160Y-91779105D01*
X123870479Y-91789454D01*
X123770078Y-91839448D01*
X123704000Y-91911930D01*
X123704000Y-91109633D01*
X123702051Y-91109932D01*
X123511336Y-91180564D01*
X123338736Y-91288145D01*
X123191330Y-91428266D01*
X123075144Y-91595194D01*
X122994940Y-91782092D01*
X122954000Y-91981311D01*
X122954000Y-92522616D01*
X122934315Y-92589655D01*
X122881511Y-92635410D01*
X122812353Y-92645354D01*
X122782547Y-92637177D01*
X122725074Y-92613371D01*
X122674236Y-92592313D01*
X122615356Y-92584561D01*
X122565739Y-92578029D01*
X122565737Y-92578028D01*
X122561720Y-92577500D01*
X122557667Y-92577500D01*
X122490333Y-92577500D01*
X122486280Y-92577500D01*
X122482263Y-92578028D01*
X122482260Y-92578029D01*
X122373764Y-92592313D01*
X122233768Y-92650301D01*
X122113549Y-92742549D01*
X122021301Y-92862768D01*
X121963312Y-93002764D01*
X121943533Y-93152999D01*
X117324466Y-93152999D01*
X117309460Y-93039022D01*
X117304687Y-93002764D01*
X117277006Y-92935936D01*
X117246698Y-92862767D01*
X117154451Y-92742549D01*
X117034233Y-92650302D01*
X117020578Y-92644646D01*
X116945074Y-92613371D01*
X116894236Y-92592313D01*
X116835356Y-92584561D01*
X116785739Y-92578029D01*
X116785737Y-92578028D01*
X116781720Y-92577500D01*
X116777667Y-92577500D01*
X116710333Y-92577500D01*
X116706280Y-92577500D01*
X116702263Y-92578028D01*
X116702260Y-92578029D01*
X116593764Y-92592313D01*
X116485453Y-92637177D01*
X116415983Y-92644646D01*
X116353504Y-92613371D01*
X116317852Y-92553282D01*
X116314000Y-92522616D01*
X116314000Y-92035429D01*
X116313682Y-92029164D01*
X116298580Y-91880660D01*
X116237696Y-91686610D01*
X116138996Y-91508785D01*
X116006520Y-91354468D01*
X115845692Y-91229978D01*
X115663094Y-91140410D01*
X115564000Y-91114753D01*
X115564000Y-91916889D01*
X115539543Y-91877390D01*
X115450038Y-91809799D01*
X115342160Y-91779105D01*
X115230479Y-91789454D01*
X115130078Y-91839448D01*
X115063998Y-91911931D01*
X115063999Y-91109633D01*
X115062051Y-91109932D01*
X114871336Y-91180564D01*
X114698736Y-91288145D01*
X114551330Y-91428266D01*
X114435144Y-91595194D01*
X114354940Y-91782092D01*
X114314000Y-91981311D01*
X114314000Y-92383000D01*
X115014000Y-92383000D01*
X115014000Y-92883000D01*
X114314000Y-92883000D01*
X114314000Y-93230570D01*
X106866508Y-93230570D01*
X106692379Y-93039022D01*
X106640584Y-92979902D01*
X106483359Y-92800440D01*
X106415502Y-92721086D01*
X106151960Y-92401899D01*
X105952365Y-92150734D01*
X105891342Y-92072024D01*
X105642580Y-91739717D01*
X105476484Y-91508785D01*
X105453142Y-91476331D01*
X105398758Y-91398772D01*
X105368772Y-91354468D01*
X105304606Y-91259662D01*
X105165373Y-91053944D01*
X104986823Y-90778761D01*
X104938893Y-90702915D01*
X104894470Y-90630034D01*
X104721424Y-90346134D01*
X104554488Y-90059644D01*
X104524895Y-90007427D01*
X104512756Y-89986007D01*
X104312397Y-89619078D01*
X104311222Y-89616875D01*
X104295487Y-89586624D01*
X104157125Y-89320615D01*
X104121285Y-89249647D01*
X103937900Y-88872132D01*
X103936830Y-88869868D01*
X103870649Y-88726198D01*
X103795653Y-88563390D01*
X103771198Y-88508580D01*
X103765383Y-88495546D01*
X103716264Y-88380845D01*
X103599474Y-88108115D01*
X103598580Y-88105965D01*
X103470901Y-87789703D01*
X103445875Y-87725508D01*
X103298011Y-87329069D01*
X103297117Y-87326593D01*
X103243096Y-87171786D01*
X103183619Y-87001341D01*
X103163412Y-86941122D01*
X103033966Y-86536178D01*
X103033247Y-86533844D01*
X102934461Y-86200099D01*
X102918698Y-86144400D01*
X102808147Y-85731820D01*
X102807478Y-85729206D01*
X102805897Y-85722741D01*
X102724009Y-85387847D01*
X102712199Y-85336909D01*
X102655077Y-85074323D01*
X112829228Y-85074323D01*
X112848360Y-85079081D01*
X112889305Y-85081858D01*
X112893490Y-85081999D01*
X114566506Y-85081999D01*
X114570703Y-85081856D01*
X114611635Y-85079082D01*
X114630769Y-85074323D01*
X124829228Y-85074323D01*
X124848360Y-85079081D01*
X124889305Y-85081858D01*
X124893490Y-85081999D01*
X126566506Y-85081999D01*
X126570703Y-85081856D01*
X126611635Y-85079082D01*
X126630769Y-85074323D01*
X126630769Y-85074322D01*
X125730000Y-84173553D01*
X124829228Y-85074322D01*
X124829228Y-85074323D01*
X114630769Y-85074323D01*
X114630769Y-85074322D01*
X113730000Y-84173553D01*
X112829228Y-85074322D01*
X112829228Y-85074323D01*
X102655077Y-85074323D01*
X102620945Y-84917418D01*
X102620425Y-84914895D01*
X102552740Y-84566433D01*
X102544443Y-84520799D01*
X102542056Y-84506602D01*
X102503195Y-84275506D01*
X112087000Y-84275506D01*
X112087143Y-84279703D01*
X112089917Y-84320633D01*
X112136165Y-84506602D01*
X112221308Y-84678277D01*
X112341365Y-84827634D01*
X112356580Y-84839864D01*
X113376447Y-83820000D01*
X113376447Y-83819999D01*
X114083553Y-83819999D01*
X115103417Y-84839864D01*
X115118635Y-84827631D01*
X115238691Y-84678277D01*
X115323834Y-84506602D01*
X115370082Y-84320635D01*
X115372858Y-84279699D01*
X115372999Y-84275509D01*
X115372999Y-84275506D01*
X124087000Y-84275506D01*
X124087143Y-84279703D01*
X124089917Y-84320633D01*
X124136165Y-84506602D01*
X124221308Y-84678277D01*
X124341365Y-84827634D01*
X124356580Y-84839864D01*
X125376447Y-83820000D01*
X126083553Y-83820000D01*
X127103417Y-84839864D01*
X127118635Y-84827631D01*
X127238691Y-84678277D01*
X127323834Y-84506602D01*
X127370082Y-84320635D01*
X127372858Y-84279699D01*
X127372999Y-84275509D01*
X127372999Y-83364493D01*
X127372856Y-83360296D01*
X127370082Y-83319366D01*
X127323834Y-83133397D01*
X127238691Y-82961722D01*
X127118634Y-82812366D01*
X127103418Y-82800134D01*
X126083553Y-83819999D01*
X126083553Y-83820000D01*
X125376447Y-83820000D01*
X125376447Y-83819999D01*
X124356581Y-82800133D01*
X124341364Y-82812367D01*
X124221308Y-82961722D01*
X124136165Y-83133397D01*
X124089917Y-83319364D01*
X124087141Y-83360300D01*
X124087000Y-83364490D01*
X124087000Y-84275506D01*
X115372999Y-84275506D01*
X115372999Y-83364493D01*
X115372856Y-83360296D01*
X115370082Y-83319366D01*
X115323834Y-83133397D01*
X115238691Y-82961722D01*
X115118634Y-82812366D01*
X115103418Y-82800134D01*
X114083553Y-83819999D01*
X113376447Y-83819999D01*
X112356581Y-82800133D01*
X112341364Y-82812367D01*
X112221308Y-82961722D01*
X112136165Y-83133397D01*
X112089917Y-83319364D01*
X112087141Y-83360300D01*
X112087000Y-83364490D01*
X112087000Y-84275506D01*
X102503195Y-84275506D01*
X102472789Y-84094688D01*
X102472498Y-84092831D01*
X102421051Y-83737753D01*
X102415743Y-83697742D01*
X102364507Y-83269219D01*
X102363680Y-83261584D01*
X102329244Y-82903706D01*
X102326379Y-82869659D01*
X102304638Y-82565676D01*
X112829229Y-82565676D01*
X113729998Y-83466447D01*
X113729999Y-83466447D01*
X114630770Y-82565676D01*
X124829229Y-82565676D01*
X125729998Y-83466447D01*
X125729999Y-83466447D01*
X126630770Y-82565676D01*
X126630769Y-82565675D01*
X126611637Y-82560917D01*
X126570699Y-82558141D01*
X126566509Y-82558000D01*
X124893493Y-82558000D01*
X124889298Y-82558143D01*
X124848366Y-82560917D01*
X124829229Y-82565676D01*
X114630770Y-82565676D01*
X114630769Y-82565675D01*
X114611637Y-82560917D01*
X114570699Y-82558141D01*
X114566509Y-82558000D01*
X112893493Y-82558000D01*
X112889298Y-82558143D01*
X112848366Y-82560917D01*
X112829229Y-82565676D01*
X102304638Y-82565676D01*
X102295644Y-82439928D01*
X102295232Y-82433052D01*
X102294767Y-82425284D01*
X102286156Y-82245897D01*
X102277532Y-82066225D01*
X102276528Y-82038316D01*
X102266288Y-81608147D01*
X102266032Y-81586776D01*
X102266032Y-81227224D01*
X102266289Y-81205827D01*
X102276529Y-80775634D01*
X102276530Y-80775630D01*
X102277532Y-80747775D01*
X102294771Y-80388635D01*
X102295647Y-80374026D01*
X102326381Y-79944305D01*
X102329244Y-79910294D01*
X102363682Y-79552395D01*
X102364505Y-79544794D01*
X102415748Y-79116215D01*
X102420222Y-79082499D01*
X102421056Y-79076213D01*
X102472491Y-78721220D01*
X102472793Y-78719287D01*
X102544458Y-78293110D01*
X102547645Y-78275584D01*
X112086500Y-78275584D01*
X112086501Y-78277656D01*
X112086642Y-78279748D01*
X112086643Y-78279753D01*
X112089418Y-78320701D01*
X112135693Y-78506776D01*
X112220884Y-78678548D01*
X112341009Y-78827990D01*
X112490451Y-78948115D01*
X112490452Y-78948115D01*
X112490453Y-78948116D01*
X112662225Y-79033307D01*
X112848296Y-79079581D01*
X112891343Y-79082500D01*
X114568656Y-79082499D01*
X114611704Y-79079581D01*
X114797775Y-79033307D01*
X114969547Y-78948116D01*
X115118990Y-78827990D01*
X115239116Y-78678547D01*
X115320522Y-78514405D01*
X115367944Y-78463093D01*
X115431611Y-78445500D01*
X124028389Y-78445500D01*
X124095428Y-78465185D01*
X124139477Y-78514405D01*
X124220884Y-78678548D01*
X124341009Y-78827990D01*
X124490451Y-78948115D01*
X124490452Y-78948115D01*
X124490453Y-78948116D01*
X124662225Y-79033307D01*
X124848296Y-79079581D01*
X124891343Y-79082500D01*
X126568656Y-79082499D01*
X126611704Y-79079581D01*
X126797775Y-79033307D01*
X126969547Y-78948116D01*
X127118990Y-78827990D01*
X127239116Y-78678547D01*
X127324307Y-78506775D01*
X127370581Y-78320704D01*
X127373500Y-78277657D01*
X127373499Y-77362344D01*
X127370581Y-77319296D01*
X127324307Y-77133225D01*
X127239116Y-76961453D01*
X127239115Y-76961452D01*
X127239115Y-76961451D01*
X127118990Y-76812009D01*
X126969548Y-76691884D01*
X126797775Y-76606693D01*
X126611702Y-76560418D01*
X126570750Y-76557641D01*
X126570722Y-76557640D01*
X126568657Y-76557500D01*
X126566559Y-76557500D01*
X124893444Y-76557500D01*
X124893414Y-76557500D01*
X124891344Y-76557501D01*
X124889252Y-76557642D01*
X124889246Y-76557643D01*
X124848298Y-76560418D01*
X124662223Y-76606693D01*
X124490451Y-76691884D01*
X124341009Y-76812009D01*
X124220884Y-76961451D01*
X124139477Y-77125595D01*
X124092056Y-77176907D01*
X124028389Y-77194500D01*
X115431611Y-77194500D01*
X115364572Y-77174815D01*
X115320523Y-77125595D01*
X115239115Y-76961451D01*
X115118990Y-76812009D01*
X114969548Y-76691884D01*
X114797775Y-76606693D01*
X114611702Y-76560418D01*
X114570750Y-76557641D01*
X114570722Y-76557640D01*
X114568657Y-76557500D01*
X114566559Y-76557500D01*
X112893444Y-76557500D01*
X112893414Y-76557500D01*
X112891344Y-76557501D01*
X112889252Y-76557642D01*
X112889246Y-76557643D01*
X112848298Y-76560418D01*
X112662223Y-76606693D01*
X112490451Y-76691884D01*
X112341009Y-76812009D01*
X112220884Y-76961451D01*
X112135693Y-77133224D01*
X112089418Y-77319297D01*
X112086641Y-77360249D01*
X112086640Y-77360278D01*
X112086500Y-77362343D01*
X112086500Y-77364439D01*
X112086500Y-77364440D01*
X112086500Y-78275555D01*
X112086500Y-78275584D01*
X102547645Y-78275584D01*
X102552740Y-78247567D01*
X102620429Y-77899086D01*
X102620937Y-77896615D01*
X102712210Y-77477041D01*
X102724009Y-77426153D01*
X102807511Y-77084657D01*
X102808129Y-77082247D01*
X102918699Y-76669594D01*
X102934468Y-76613876D01*
X103033263Y-76280102D01*
X103033941Y-76277898D01*
X103163435Y-75872806D01*
X103182955Y-75814638D01*
X103183628Y-75812634D01*
X103219421Y-75710061D01*
X103297172Y-75487249D01*
X103297955Y-75485079D01*
X103445870Y-75088504D01*
X103470901Y-75024297D01*
X103598607Y-74707968D01*
X103599464Y-74705908D01*
X103765393Y-74318427D01*
X103795663Y-74250588D01*
X103936913Y-73943952D01*
X103937882Y-73941904D01*
X104121277Y-73564369D01*
X104130069Y-73546961D01*
X104157125Y-73493385D01*
X104311278Y-73197017D01*
X104312321Y-73195061D01*
X104512774Y-72827958D01*
X104513254Y-72827113D01*
X104554488Y-72754356D01*
X104721395Y-72467911D01*
X104938926Y-72111031D01*
X104986828Y-72035231D01*
X105086237Y-71882021D01*
X105165378Y-71760048D01*
X105193106Y-71719078D01*
X105398798Y-71415169D01*
X105453142Y-71337669D01*
X105642571Y-71074293D01*
X105891371Y-70741936D01*
X105952370Y-70663260D01*
X106151941Y-70412122D01*
X106415555Y-70092849D01*
X106483359Y-70013560D01*
X106692371Y-69774986D01*
X106970046Y-69469532D01*
X107044888Y-69390065D01*
X107262552Y-69164425D01*
X107553715Y-68873262D01*
X107635653Y-68794222D01*
X107861262Y-68581749D01*
X107879014Y-68565610D01*
X108165240Y-68305414D01*
X108254323Y-68227371D01*
X108487002Y-68028402D01*
X108803150Y-67767368D01*
X108899450Y-67690843D01*
X109138475Y-67505527D01*
X109465991Y-67260351D01*
X109569557Y-67185864D01*
X109814130Y-67014367D01*
X110152333Y-66785465D01*
X110263126Y-66713579D01*
X110275841Y-66705543D01*
X110512435Y-66556031D01*
X110561513Y-66526116D01*
X110628958Y-66508049D01*
X110695509Y-66529327D01*
G37*
%TD.AperFunction*%
%TD*%
M02*
